<svg id="Layer_1" data-name="Layer 1" xmlns="http://www.w3.org/2000/svg" viewBox="0 0 760.86 968.64"><defs><style>.cls-1{fill:#f8bb0b;}.cls-2{fill:#ef759a;}.cls-3{fill:#ee769c;}.cls-4{fill:#2ca16c;}.cls-5{fill:#276fb7;}.cls-6{fill:#d15d83;}.cls-7{fill:#fff;}.cls-8{fill:#f3c500;}.cls-9{fill:#cbe227;}.cls-10{font-size:54px;font-family:Codigra-Regular, Codigra;}</style></defs><path d="M24.84,325.18c9.68,23.75,21.64,46.66,33.8,69.29,10.68,19.89,21.53,39.93,39.08,55.11,1.46,1.26,2.31,3.62,2.75,5.62,8.69,39.31,17.58,78.59,25.83,118,13.1,62.57,25.39,125.31,24.83,189.65-.23,26.64-1,53.31-8.94,79.18-3,9.9,2,17.39,9.76,24.39-27.31,20.88-35.57,49.39-34.31,82.39,1.81.44,3.23,1.1,4.65,1.1,28.87.06,57.75.19,86.61-.19,2.94,0,6.32-2.7,8.66-5,7.82-7.67,15.25-15.75,22.82-23.67l2.79,1.55c1.69,9.29,3.39,18.62,5.14,28.29H297c-3.93-17-7.73-33.51-11.73-50.76,4.14-.94,8-1.68,11.71-2.68,12.18-3.29,18-12.9,14.34-24.9-23.18-76.48-46.88-152.81-69.65-229.41-12.8-43-24.15-86.55-36.15-129.82-2.4-8.59-5.1-17.08-6-26.31,5.45,11.46,11,22.88,16.33,34.39Q288.76,678.78,362.06,836c5.17,11.12,12.79,21.23,17,32.64,3.43,9.41,4.07,20,5,30.16,1.6,17.23,2.4,34.53,3.6,52.64H441c-1.3-9.53-2.56-18.82-3.83-28.12l1.32-1.14c5.37,8.17,10.54,16.43,16.22,24.43,1.68,2.35,4.74,5.29,7.21,5.29,27.31.35,54.63.2,82,.12,1.12,0,2.31-.59,4.12-1.08-3.91-32.49-16.56-59-46.78-74.59,10.75-17.78,10.64-22.19-3-37.91-33.39-38.5-67.32-76.69-91.25-122-18.37-34.78-34.45-70.77-51.53-106.23-9-18.68-18-37.38-27.31-56.81h8.8c.49,1.74,1,3.14,1.26,4.59,1.41,7,4.88,11.86,12.41,13.29a6.82,6.82,0,0,1,4.41,3.45c2.66,6.58,6.4,11.74,14.29,10.74,8.08-1,11-7.2,12.72-14.2.33-1.15.58-2.37,1-4.15,2.18.85,4,1.69,6,2.29,10.63,3.26,17.93-2.92,14.57-13.64a127.64,127.64,0,0,0-13.4-29.44c-9.06-14.41-18.68-28.63-29.68-41.63-18.58-21.89-33.81-45.79-48-70.62-25.39-44.43-51.68-88.35-77.24-132.69-9.23-16-22.37-26.87-38.92-34.59-8.32-3.88-15.8-9.56-23.74-14.31a27.42,27.42,0,0,0-5.05-1.82c-9.31,22-8.53,18.31-16,20-.5-8-1-15.94-1.5-24.25,23-3.82,33.07-20.08,41.65-40.82l-15.91,2.53c-.36.22-.67.44-1,.63-3.23,1.85-7,2.55-10.43,3.79a17.15,17.15,0,0,1-2.92,3.1,18,18,0,0,1-2.7,1.69h0l.78.71-10,18v-16.2c-.16-.08-.31-.14-.47-.23a8.26,8.26,0,0,1-2.88-.39v9.16c-3.19-5.82-6-10.87-8.63-15.73l.25-.47c-.55-.41-1.11-.86-1.61-1.25l-1.5-1.19c-2.6,1.14-5.44.9-8.8-2.69a7.92,7.92,0,0,1-2-6.8c-1.21-.78-2.44-1.54-3.68-2.25-3.09-.62-6-1.21-8.89-1.7-.54-.09-1.13.45-2,.85,4.51,19.65,12.07,36.86,32.43,45.48,2.71,1.16,5.22,5.62,5.71,8.88.91,6,.25,12.32-1.75,20.21-3.73-4.35-9.13-8.16-10.83-13.16-3.22-9.55-8.87-11.41-17.52-9.24-2.65.66-5.37,1-8.45,1.6.45,3.5.84,6.5,1.34,10.4-10.5,2-21.09,3.59-31.5,6-16.2,3.76-31.39,9.88-43.48,21.88C18.92,285.42,16.75,305.37,24.84,325.18Zm91.87-40.72c5.17,22.9,9.94,44.38-11.6,61.72-13.16-17.27-26.71-35-41.52-54.49l53.09-7.23Zm3.74,56.24a8.61,8.61,0,0,1,6.36-1.3c26.08,3.51,52.1,7.45,78.24,10.4,7.94.89,12.5,4.14,15.94,13.38L120.42,340.7ZM123,295.57c18.88,2.58,36.86,5,54.81,7.52,13.57,1.88,16,5.12,14.72,19.93-17.14-2.27-34.24-4.77-51.39-6.77C121,313.84,125,314,123,295.57ZM358.37,547.28l3.37-1.81c5.27,5.92,11.41,11.29,15.27,18,1.94,3.36.78,9.73-1.16,13.66-1.29,2.61-7.05,5.24-9.71,4.39-3.2-1-7-5.49-7.42-8.86C357.65,564.32,358.37,555.78,358.37,547.28Zm-15.7,5.43c3.24-5.72,6.24-11.66,9.46-17.72,8.3,10-.78,21,1.22,31.79C343.93,566.2,339.1,559.06,342.67,552.71Zm-1.51-5.62c-3.71-16.31-4.05-16.48-21-13.15a6.43,6.43,0,0,1-1.31-1.24q-40-67-79.83-134.21c-1.83-3.12-3.79-6.71-4-10.18-1.14-18.84-11-33.84-23.61-46-17.12-16.61-15.34-37.86-20.19-57.61l2.14-1.65,15,10.34,1.84-2.61-20-14.7c-.72-7.1-1.75-17.18-2.87-28.24,18.71,5.08,33.82,16.22,42.71,31.34l66.26,113.1c19.86,34,38.26,68.77,64.86,98.42,10.27,11.46,18.11,25.13,26.74,38,1.77,2.64,2.09,6.24,3.19,9.36,2.22,6.26,4.62,12.45,6.7,18.75.85,2.57,2.37,6.66,1.28,7.74-1.72,1.72-6,2.83-8.1,1.83-5.24-2.45-10.84-5.37-14.56-9.63-11.4-13-22-26.8-32.9-40.26-1.5-1.85-3.12-3.6-4.68-5.4,7.49,31.55,7.49,31.55,2.3,36Zm115.5,337.06c.06-1.68,3.87-4.85,5.25-4.49,2.27.6,5.39,3.42,5.43,5.48s-3.12,4.17-6.12,7.64C459,888.9,456.58,886.49,456.66,884.15ZM199,882.52c-1.79.53-4.79-3.08-9.22-6.27,4.29-3.08,6.8-6.24,9.07-6.08,2.48.18,4.69,3.5,7,5.44-2.25,2.44-4.13,6.07-6.86,6.88ZM103.29,414.43c.64-6.73,1.62-11.94,9.7-14.56,9.44-3.06,14.77-11.92,14.38-18.75l-18.14,17.62-2-2.1c2.27-8.7,5.82-17.28,6.46-26.13s-1.63-18-2.72-27.85c30.9,7,60.13,13.8,89.46,20.17,5.67,1.2,7.07,3.79,6.14,9a88.55,88.55,0,0,0-.65,9.77l2.43.19c1.16-5.42,2.43-10.83,4.16-18.58,6,3.68,13.07,5.48,14.7,9.48,5,12.28,7.93,25.46,11.66,38.28-14.7.91-26.23-6.57-34.14-21.24a12.27,12.27,0,0,0,1,7.15c6.87,12.24,18,17.83,31.48,18.12,6.21.13,9.25,2.66,12.41,7.42,44.39,66.84,81.06,137.92,113,211.27,30,68.8,66.65,132.89,117.54,188.4,7.11,7.75,13.68,16,21.68,25.35-29.93-5.69-43.39-3.37-67.17,18.82C415.72,884,382.21,874.36,372,852,316.88,731.06,260.57,610.65,204.57,490.12c-9.57-20.6-19.78-40.9-29.7-61.34l1.18-1.26,17.19,10.18,1.71-3c-6.73-3.84-13.06-9-20.29-11.15-8.95-2.61-9.62-8.22-8.84-15.3.34-3.36,2.19-6.59,2.34-9.92.3-6.92-.07-13.86-.16-20.79l-2.67.22c-1.27,13.72-2.54,27.37-3.87,41.72l-8.56,1.25c1.84,17.13,10.42,29.11,22.49,39.2,8.91,7.44,15.88,16,19.06,27.84,11.59,43.35,23.33,86.68,36,129.73,19.32,65.66,39.43,131.08,59.23,196.59,5.1,16.88,10.32,33.73,16.16,52.8-14.45-14.94-29.92-19.55-47.52-14.73-24.39,6.66-46.18,3.55-66.39-12.68-11-8.83-24.32-10.32-37.84-4.55a32,32,0,0,1-5.08,1.26c-.34-1.13-.75-1.74-.65-2.26,8.93-50,8.67-100.38.67-150.07-9.81-61.39-22.61-122.36-35.81-183.15C107,472.1,100.53,443.9,103.29,414.43ZM90.85,376.18l15.21,10.32c-1.53,4.78-2.85,8.94-4.94,15.51ZM30.46,331.42c-15.36-32.88-4.83-58.72,26.76-72.95A147.44,147.44,0,0,1,90.9,248.28c23.4-4.3,18.58-5.36,22.4,16.15.09.49-.45,1.07-.45,1.17l-13.79-2.26-.45,2.45c7.77,2.32,16.86,3.26,16.64,15.5C102.45,283,90,283.68,78,286.47c-10.9,2.55-18.58.95-23.23-9.81-.28-.64-1.71-.79-2.61-1.17l-2.32,2.2,58,77.67c-7,5.06-4.74,10.81-.23,17.16,1.54,2.17.85,6,1.18,9L105.59,383,87.4,367.24c3.25,22.58,18.56,42.65,8.74,69.3-4.57-3.07-11.26-5.18-13.8-9.64-17.91-31.48-36.53-62.72-51.84-95.48Z"/><path class="cls-1" d="M175.25,460c8.91,7.44,15.88,16,19.06,27.84,11.59,43.35,23.33,86.68,36,129.73,19.32,65.66,39.43,131.08,59.23,196.59,5.1,16.88,10.32,33.73,16.16,52.8-14.45-14.94-29.92-19.55-47.52-14.73-24.39,6.66-46.18,3.55-66.39-12.68-11-8.83-24.32-10.32-37.84-4.55a31.69,31.69,0,0,1-5.08,1.26c-.34-1.13-.75-1.74-.65-2.26,8.93-50,8.67-100.38.67-150.07-9.81-61.39-22.61-122.36-35.81-183.15-6.21-28.61-12.65-56.81-9.86-86.3.64-6.73,1.62-11.94,9.7-14.56,9.44-3.06,14.77-11.92,14.38-18.75l-18.14,17.62-2-2.1c2.27-8.7,5.82-17.28,6.46-26.13s-1.63-18-2.72-27.85c30.9,7,60.13,13.8,89.46,20.17,5.67,1.2,7.07,3.79,6.14,9a88.55,88.55,0,0,0-.65,9.77l2.43.19c1.16-5.42,2.43-10.83,4.16-18.58,6,3.68,13.07,5.48,14.7,9.48,5,12.28,7.93,25.46,11.66,38.28-14.7.91-26.23-6.57-34.14-21.24a12.27,12.27,0,0,0,1,7.15c6.87,12.24,18,17.83,31.48,18.12,6.21.13,9.25,2.66,12.41,7.42,44.39,66.84,81.06,137.92,113,211.27,30,68.8,66.65,132.89,117.54,188.4,7.11,7.75,13.68,16,21.68,25.35-29.93-5.69-43.39-3.37-67.17,18.82-19,17.74-52.46,8.1-62.66-14.26C316.81,731.11,260.5,610.7,204.5,490.17c-9.57-20.6-19.78-40.9-29.7-61.34l1.18-1.26,17.19,10.18,1.71-3c-6.73-3.84-13.06-9-20.29-11.15-9-2.61-9.62-8.22-8.84-15.3.34-3.36,2.19-6.59,2.34-9.92.3-6.92-.07-13.86-.16-20.79l-2.67.22c-1.27,13.72-2.54,27.37-3.87,41.72l-8.56,1.25C154.67,437.86,163.22,449.84,175.25,460Zm-25.63-95.43c5.13,3.6,8.29,7.52,10.87,7.21,2.87-.39,5.21-4.67,7.77-7.26-2.6-2.49-5-6.65-7.88-7-2.59-.32-5.69,3.54-10.76,7.1Z"/><path class="cls-2" d="M230.07,279.18q33.15,56.6,66.29,113.1c19.86,34,38.26,68.77,64.86,98.42,10.27,11.46,18.11,25.13,26.74,38,1.77,2.64,2.09,6.24,3.19,9.36,2.22,6.26,4.62,12.45,6.7,18.75.85,2.57,2.37,6.66,1.28,7.74-1.72,1.72-6,2.83-8.1,1.83-5.24-2.45-10.84-5.37-14.56-9.63-11.4-13-22-26.8-32.9-40.26-1.5-1.85-3.12-3.6-4.68-5.4,7.49,31.55,7.49,31.55,2.3,36-3.74-16.27-4.08-16.48-21-13.16a5.72,5.72,0,0,1-1.32-1.23q-40-67-79.83-134.21c-1.83-3.12-3.79-6.71-4-10.18-1.14-18.84-11-33.84-23.61-46-17.12-16.61-15.34-37.86-20.19-57.61l2.14-1.65,15,10.34,1.84-2.61-20-14.7c-.72-7.1-1.75-17.18-2.87-28.24C206.11,252.92,221.22,264.06,230.07,279.18Z"/><path class="cls-3" d="M82.28,426.9c-17.91-31.48-36.48-62.6-51.84-95.48s-4.83-58.72,26.78-72.95a148.12,148.12,0,0,1,33.64-10.19c23.4-4.3,18.58-5.36,22.4,16.15.09.49-.45,1.07-.45,1.17L99,263.34l-.45,2.45c7.77,2.32,16.86,3.26,16.64,15.5C102.41,283,90,283.68,78,286.47c-10.9,2.55-18.58.95-23.23-9.81-.28-.64-1.71-.79-2.61-1.17l-2.32,2.2,58,77.67c-7,5.06-4.74,10.81-.23,17.16,1.54,2.17.85,6,1.18,9L105.55,383,87.36,367.24c3.25,22.58,18.56,42.65,8.74,69.3C91.53,433.47,84.84,431.36,82.28,426.9Z"/><path class="cls-4" d="M177.83,303.09c13.57,1.88,16,5.12,14.72,19.93-17.14-2.27-34.24-4.77-51.39-6.77C121,313.84,125.06,314,123,295.57,141.87,298.15,159.85,300.59,177.83,303.09Z"/><path class="cls-5" d="M120.45,340.7a8.61,8.61,0,0,1,6.36-1.3c26.08,3.51,52.1,7.45,78.24,10.4,7.94.89,12.5,4.14,15.94,13.38Z"/><path class="cls-6" d="M361.74,545.47c5.27,5.92,11.41,11.29,15.27,18,1.94,3.36.78,9.73-1.16,13.66-1.29,2.61-7.05,5.24-9.71,4.39-3.2-1-7-5.49-7.42-8.86-1.07-8.39-.35-16.91-.35-25.39Z"/><path class="cls-7" d="M118.41,168.32a9.53,9.53,0,0,0,2.42,8.22c4.07,4.34,7.5,4.63,10.65,3.25a60.11,60.11,0,0,1-7.1-6.81c-.47-.53-.92-1.11-1.37-1.71C121.52,170.34,120,169.32,118.41,168.32Z"/><path class="cls-6" d="M342.67,552.71c3.24-5.72,6.24-11.66,9.46-17.72,8.3,10-.78,21,1.22,31.79C343.93,566.2,339.1,559.06,342.67,552.71Z"/><path class="cls-7" d="M149.46,192v19.6c5.38-9.67,9.48-17,12.11-21.74l-.94-.86-.9.48A8.59,8.59,0,0,1,149.46,192Z"/><path class="cls-7" d="M198.87,870.2c2.48.18,4.69,3.5,7,5.44-2.25,2.44-4.13,6.07-6.86,6.88-1.76.53-4.75-3.08-9.16-6.24C194.14,873.22,196.65,870,198.87,870.2Z"/><path class="cls-7" d="M135.27,182.78c-.09.19-.19.37-.29.56l10.43,19V191.26a8.63,8.63,0,0,1-5.23-4.54,8.5,8.5,0,0,1-1.5-1.88,5.06,5.06,0,0,0-1.14-.68A11.66,11.66,0,0,1,135.27,182.78Z"/><path class="cls-7" d="M456.66,884.15c.06-1.68,3.87-4.85,5.25-4.49,2.27.6,5.39,3.42,5.43,5.48s-3.12,4.17-6.12,7.64C459,888.9,456.58,886.49,456.66,884.15Z"/><path d="M160.38,357.48c2.88.34,5.28,4.5,7.88,7-2.56,2.59-4.9,6.87-7.77,7.26-2.58.35-5.74-3.57-10.87-7.17C154.69,361,157.79,357.15,160.38,357.48Z"/><path d="M88.5,162.92c1.42-6.17,5.31-9.57,11.67-10,2.06-.12,4.14,0,6.57,0l-3.85-4.87c-5.56-7-5.28-13,1.12-19.2a27.3,27.3,0,0,1,6.09-4.54c4.64-2.5,9.74-1.57,14.11,2.37,1.75,1.57,3.26,3.36,5.13,5.36a20.4,20.4,0,0,1-.25-2.34,51.33,51.33,0,0,1,.16-7.44c.82-5.31,4.05-8.65,9.31-10,.83-.21,1.65-.46,2.47-.7h6.62c.44.13.87.3,1.32.39a12.71,12.71,0,0,1,8,4.88c2.46,3.2,5,6.31,7.6,9.51.69-.46,1.17-.83,1.69-1.18,4.89-3.33,9.82-3.32,14.48.32a36.07,36.07,0,0,1,5.39,5.38c3.51,4.17,6.86,8.5,10.25,12.73s4.81,8.81,2.39,14.07a2,2,0,0,0,.38,1.64q2.68,3.54,5.52,6.94c2.78,3.34,5.61,6.63,6.38,11.12v7c-.2.65-.44,1.29-.6,1.95-1.36,5.94-5,9.25-11,9.94a62.87,62.87,0,0,1-7,0c.43.56.69,1,1,1.35,1.29,1.64,2.63,3.24,3.88,4.91a11.91,11.91,0,0,1,.73,14.13,23.47,23.47,0,0,1-7.82,8c-4.21,2.6-8.59,2.65-12.59-.17-2.38-1.66-4.33-3.95-6.45-6a26.78,26.78,0,0,1-1.85-2.26c.17,1.62.38,2.72.38,3.82a48.38,48.38,0,0,1-.06,5.9c-.62,5.9-4,9.63-9.81,10.9a12.17,12.17,0,0,0-1.3.4h-6.62c-.77-.22-1.54-.46-2.32-.64a13.06,13.06,0,0,1-7.73-5c-2.29-3-4.69-5.82-7.06-8.82l-1.56,1.06c-4.7,3.2-9.51,3.25-14.14.09a32.22,32.22,0,0,1-6.14-5.58c-3.63-4.22-7-8.75-10.48-13s-4.65-8.82-2-14a2.14,2.14,0,0,0-.37-1.78c-1.71-2.26-3.46-4.51-5.31-6.66-3.09-3.59-5.92-7.29-6.61-12.17v-6.63A7,7,0,0,0,88.5,162.92Zm73.59,42.22a25.54,25.54,0,0,0,5.75,5.23,9.38,9.38,0,0,0,10.38.3,20.58,20.58,0,0,0,8.69-9.23,10.33,10.33,0,0,0-1-10.88c-2.68-3.93-6.52-6.53-10.52-8.93a16.16,16.16,0,0,1-3.08-2.11l1.62.42a41.29,41.29,0,0,0,13,2c6.57-.25,10.66-3.52,11.73-9.93a27.75,27.75,0,0,0,0-8.63c-.8-5.28-4.21-8.27-9.47-9-5.06-.72-9.92.36-14.76,1.62a5,5,0,0,1-2.14.22,18.53,18.53,0,0,0,2-1.11c3.35-2.47,7-4.62,9.93-7.52,5-4.92,5.16-10.23,1-15.81A27.06,27.06,0,0,0,180,126.6c-4.56-3.53-9.51-3.58-13.82.29a62.51,62.51,0,0,0-7.71,9.09c-1.42,1.88-2.41,4.1-3.74,6.1a58.69,58.69,0,0,0,1.74-6.53A71,71,0,0,0,157.64,124c-.08-6.18-3.52-10-9.66-10.81a27.67,27.67,0,0,0-9.12.4c-5.28,1.1-8.19,4.91-8.65,10.41a37.5,37.5,0,0,0,1.62,13.06,12.24,12.24,0,0,1,.57,2.94,34.09,34.09,0,0,0-1.82-3.08c-2.21-3-4.2-6.17-6.8-8.76-5-5-10.72-5.16-16.23-.74a28.29,28.29,0,0,0-4.84,5c-3.43,4.58-3.28,9.21.23,13.75,2.91,3.78,6.85,6.38,10.91,8.78a12.6,12.6,0,0,1,2.16,1.46c-2.85-.61-5.67-1.42-8.55-1.76a38.4,38.4,0,0,0-8.3-.18c-5.13.54-8.36,3.62-9.36,8.67a21.74,21.74,0,0,0,.37,10.51,10.53,10.53,0,0,0,8.77,7.93c5.17,1,10.1-.19,15.1-1.52a8.64,8.64,0,0,1,2.2-.41,67.88,67.88,0,0,0-6.63,4.26,44.49,44.49,0,0,0-7.13,6.79,9.52,9.52,0,0,0-.14,12.4,30.2,30.2,0,0,0,6.66,6.5c4.55,3.22,9.29,2.79,13.65-.66a34.16,34.16,0,0,0,8-9.81l1.63-2.82c-.69,3.4-1.42,6.28-1.81,9.21a28.05,28.05,0,0,0-.14,6.41c.5,5.47,3.6,8.93,8.94,10.2a21.89,21.89,0,0,0,10.18,0c5-1.16,7.93-4.91,8.33-10.48a42.14,42.14,0,0,0-1.9-14.24c-.23-.83-.45-1.65-.66-2.43C157.55,198.41,159.63,201.91,162.09,205.14Z"/><path class="cls-7" d="M156,197.39c1.28,4.66,2.26,9.36,1.9,14.24-.4,5.57-3.33,9.32-8.33,10.48a21.89,21.89,0,0,1-10.18,0c-5.34-1.27-8.44-4.72-8.94-10.2a28.05,28.05,0,0,1,.14-6.41c.39-2.93,1.12-5.81,1.81-9.21-.71,1.23-1.16,2-1.63,2.82a34.16,34.16,0,0,1-8,9.81c-4.36,3.45-9.1,3.88-13.65.66a30.2,30.2,0,0,1-6.66-6.5,9.52,9.52,0,0,1,.14-12.4,44.49,44.49,0,0,1,7.13-6.79,67.88,67.88,0,0,1,6.63-4.26,8.64,8.64,0,0,0-2.2.41c-5,1.33-9.93,2.52-15.1,1.52a10.53,10.53,0,0,1-8.77-7.93,21.74,21.74,0,0,1-.37-10.51c1-5.05,4.23-8.13,9.36-8.67a38.4,38.4,0,0,1,8.3.18c2.88.34,5.7,1.15,8.55,1.76a12.6,12.6,0,0,0-2.16-1.46c-4.06-2.4-8-5-10.91-8.78-3.51-4.54-3.67-9.17-.23-13.75a28.29,28.29,0,0,1,4.84-5c5.51-4.42,11.23-4.26,16.23.74,2.6,2.59,4.59,5.76,6.8,8.76A32.76,32.76,0,0,1,132.5,140a12.24,12.24,0,0,0-.57-2.94A37.5,37.5,0,0,1,130.31,124c.46-5.5,3.37-9.31,8.65-10.41a27.67,27.67,0,0,1,9.12-.4c6.14.81,9.58,4.63,9.66,10.81a71,71,0,0,1-1.19,11.54,58.69,58.69,0,0,1-1.74,6.53c1.33-2,2.32-4.22,3.74-6.1a62.51,62.51,0,0,1,7.71-9.09c4.31-3.87,9.25-3.82,13.82-.29a26.85,26.85,0,0,1,5.11,5.16c4.13,5.58,4,10.9-1,15.8-2.93,2.9-6.58,5.06-9.93,7.52a17,17,0,0,1-2,1.12,4.72,4.72,0,0,0,2.14-.23c4.85-1.25,9.71-2.33,14.77-1.62,5.26.78,8.67,3.77,9.47,9a27.75,27.75,0,0,1,0,8.63c-1.08,6.41-5.17,9.68-11.73,9.93a41.29,41.29,0,0,1-13-2c-.53-.15-1.07-.28-1.61-.42a16.09,16.09,0,0,0,3.07,2.11c4,2.4,7.85,5,10.53,8.93a10.31,10.31,0,0,1,1,10.88,20.62,20.62,0,0,1-8.68,9.23,9.42,9.42,0,0,1-10.38-.3,25.54,25.54,0,0,1-5.75-5.23c-2.5-3.17-4.58-6.67-6.87-10.09C155.47,195.78,155.69,196.59,156,197.39ZM117.59,168a26.78,26.78,0,1,0,0-.17Z"/><path d="M143.89,141.05h.41a26.51,26.51,0,1,1-.41,0Zm-24.82,26.78v.57a25.11,25.11,0,0,0,25.54,24.66c14-.09,25.08-11.55,24.94-25.84-.13-13.66-11.57-24.74-25.57-24.66h0a25.08,25.08,0,0,0-24.87,25.29Z"/><path class="cls-8" d="M119.07,167.79A25.08,25.08,0,0,1,144,142.54c14-.08,25.44,11,25.57,24.66A25.21,25.21,0,0,1,144.61,193h-.55a25.1,25.1,0,0,1-25-25.21Zm40.47,2.13c.22.69.5,1.38.66,2.09a2.49,2.49,0,0,1,0,1.27,16.78,16.78,0,0,1-31.64.4,5.12,5.12,0,0,1,.24-2.13c.08-.56.19-1,.29-1.56a11.05,11.05,0,0,1-1.37.36,4.23,4.23,0,0,1-1.28-.07,11.25,11.25,0,0,1-1.29-.38,3.68,3.68,0,0,0,.07,1.44c.84,1.66,1.77,3.29,2.69,4.91,3.88,6.81,9.71,10.39,17.58,9.89,7.46-.48,12.72-4.43,15.81-11.27.48-1.1,1.19-2,1.7-3.1a9.46,9.46,0,0,0,.51-1.8l-1.64.63c-.07,0-.21.05-.07,0Zm-7-4.39a6.77,6.77,0,0,0,6.56-5.37c.07-.47-.41-1-.63-1.55-.45.32-1.13.56-1.31,1-1.07,2.65-2.33,3.77-4.55,3.79s-3.61-1.14-4.61-3.7c-.18-.47-.82-.75-1.25-1.12-.24.56-.76,1.17-.67,1.67a6.7,6.7,0,0,0,6.46,5.28Zm-16.45,0a6.75,6.75,0,0,0,6.38-4.94c.12-.63-.31-1.34-.48-2-.48.44-1.19.79-1.41,1.33-.89,2.23-2.33,3.44-4.48,3.47s-3.75-1.27-4.62-3.54c-.25-.51-.82-.86-1.25-1.29-.21.63-.7,1.31-.59,1.89a6.75,6.75,0,0,0,6.45,5.07Z"/><path d="M161.89,170.58l1.64-.64a9.56,9.56,0,0,1-.51,1.81c-.51,1.1-1.22,2-1.7,3.1-3.09,6.84-8.35,10.79-15.81,11.27-7.87.5-13.69-3.09-17.58-9.89-.92-1.62-1.85-3.25-2.69-4.91a3.73,3.73,0,0,1-.07-1.45q.63.23,1.29.39a4.57,4.57,0,0,0,1.28.07,9.24,9.24,0,0,0,1.37-.37c-.1.56-.21,1-.29,1.56a5.12,5.12,0,0,0-.24,2.13,16.79,16.79,0,0,0,31.64-.39,2.52,2.52,0,0,0,0-1.28c-.16-.7-.44-1.39-.66-2.08l2.24.7C161.66,170.65,161.77,170.62,161.89,170.58Z"/><path d="M146.05,160.24c-.09-.5.44-1.11.68-1.67.43.37,1.07.65,1.25,1.12,1,2.56,2.42,3.71,4.61,3.7s3.47-1.15,4.54-3.79c.18-.43.87-.67,1.32-1,.22.55.7,1.08.63,1.55a6.65,6.65,0,0,1-13,.09Z"/><path d="M129.61,160.4c-.11-.58.38-1.26.59-1.89.43.43,1.06.78,1.25,1.29.87,2.27,2.5,3.56,4.62,3.54s3.59-1.24,4.49-3.47c.22-.54.92-.89,1.4-1.33.18.7.61,1.41.48,2a6.59,6.59,0,0,1-12.83-.14Z"/><path class="cls-5" d="M462,950.83c-24.75-36-31.46-47.36-28.92-33.5,1.79,9.77,4.92,33.5,4.92,33.5H384.66l-5.5-84s5.08,9.83,31,9.83a50.18,50.18,0,0,0,39.33-19.07c14,23.24,15.2,1.49,55.72,23.24s39.63,68.53,39.63,68.53Z"/><path class="cls-5" d="M228.61,859.49c-29,0-46.08-18.71-46.08-18.71v18.71s-19.08,5-46.09,21.77-19.07,67.19-19.07,67.19h96.54c6-17.94,31-28.25,31-28.25l2.78,28.25h47.67s-23-90.15-23-89Z"/><circle class="cls-9" cx="447.04" cy="882.34" r="5.96"/><circle class="cls-9" cx="232.91" cy="882.34" r="5.96"/><path class="cls-5" d="M179.72,245.77l-9-4.91s-6.53,16.29-21.23,15.89-18.68-17.07-20.32-19.49-11.86,0-11.86,0l7,52.46,60.09,5.85-4.77-47.73"/><text class="cls-10" transform="matrix(0.87, -0.5, 0.5, 0.87, 256.09, 230.94)">H</text><text class="cls-10" transform="matrix(0.95, -0.3, 0.3, 0.95, 288.9, 212.44)">a</text><text class="cls-10" transform="matrix(0.99, -0.13, 0.13, 0.99, 319.17, 202.69)">b</text><text class="cls-10" transform="matrix(1, -0.01, 0.01, 1, 353.38, 198.77)">l</text><text class="cls-10" transform="matrix(1, 0.09, -0.09, 1, 369.3, 198.22)">e</text><text class="cls-10" transform="translate(399.67 199.95) rotate(13.84)">m</text><text class="cls-10" transform="translate(453.79 214.02) rotate(21.19)">o</text><text class="cls-10" transform="translate(487.2 227.54) rotate(23.68)">s</text><text class="cls-10" transform="translate(517.26 240.26) rotate(19.22)"> </text><text class="cls-10" transform="matrix(0.97, 0.24, -0.24, 0.97, 530.5, 245.42)">u</text><text class="cls-10" transform="translate(570.28 254.8) rotate(4.39)">n</text><text class="cls-10" transform="matrix(1, -0.04, 0.04, 1, 609.87, 256.99)"> </text><text class="cls-10" transform="translate(624.4 257.01) rotate(-8.35)">p</text><text class="cls-10" transform="translate(664.05 250.85) rotate(-17.59)">o</text><text class="cls-10" transform="translate(701.68 238.45) rotate(-25.64)">c</text><text class="cls-10" transform="matrix(0.84, -0.55, 0.55, 0.84, 732.58, 223.58)">o</text></svg>