<svg id="Layer_1" data-name="Layer 1" xmlns="http://www.w3.org/2000/svg" viewBox="0 0 1920 1080"><defs><style>.cls-1{fill:#f8bb0b;}.cls-2{fill:#ef759a;}.cls-3{fill:#ee769c;}.cls-4{fill:#2ca16c;}.cls-5{fill:#276fb7;}.cls-6{fill:#d15d83;}.cls-7{fill:#fff;}.cls-8{fill:#ffe8a8;}.cls-9{fill:#f3c500;}.cls-10{fill:none;stroke:#000;stroke-miterlimit:10;}.cls-11{fill:#cbe227;}.cls-12{font-size:38.66px;font-family:Metropolis-ExtraLightItalic, Metropolis;font-weight:200;font-style:italic;letter-spacing:0.02em;}</style></defs><path class="cls-1" d="M1172.07,316.17c1.83,4.52,1.39,10.26,8.52,11.1-6.31,1.22-7,6.24-8.46,12.13-2.29-5.44-1.27-11.76-8.88-12.36C1169.53,325.74,1171.42,321.55,1172.07,316.17Z"/><path d="M1383,301.43c-12.09-12-27.28-18.12-43.48-21.88-10.41-2.41-21-4-31.5-6,.5-3.9.89-6.9,1.34-10.4-3.08-.58-5.8-.94-8.45-1.6-8.65-2.17-14.3-.31-17.52,9.24-1.7,5-7.1,8.81-10.83,13.16-2-7.89-2.66-14.17-1.75-20.21.49-3.26,3-7.72,5.71-8.88,20.36-8.62,27.92-25.83,32.43-45.48-.87-.4-1.46-.94-2-.85-2.9.49-5.8,1.08-8.89,1.7-1.24.71-2.47,1.47-3.68,2.25a7.9,7.9,0,0,1-2,6.8c-3.36,3.59-6.2,3.83-8.8,2.69-.5.4-1,.8-1.5,1.19s-1.06.84-1.61,1.25l.25.47c-2.66,4.86-5.44,9.91-8.63,15.73,0-3.2,0-6.22,0-9.16a8.35,8.35,0,0,1-2.88.39c-.16.09-.31.15-.47.23v16.2l-10-18,.78-.71h0a18,18,0,0,1-2.7-1.69,16.81,16.81,0,0,1-2.92-3.1c-3.47-1.24-7.2-1.94-10.43-3.79-.33-.19-.64-.41-1-.63l-15.91-2.53c8.58,20.74,18.66,37,41.65,40.82-.51,8.31-1,16.23-1.5,24.25-7.47-1.74-6.69,2-16-20.05a27.56,27.56,0,0,0-5.05,1.82c-7.94,4.75-15.42,10.43-23.74,14.31-16.55,7.72-29.69,18.57-38.92,34.59-25.56,44.34-51.85,88.26-77.24,132.69-14.19,24.83-29.42,48.73-48,70.62-11,13-20.62,27.22-29.68,41.63a127.67,127.67,0,0,0-13.4,29.44c-3.36,10.72,3.94,16.9,14.57,13.64,2-.6,3.82-1.44,6-2.29.42,1.78.67,3,1,4.15,1.74,7,4.64,13.21,12.72,14.2,7.89,1,11.63-4.16,14.29-10.74a6.83,6.83,0,0,1,4.41-3.45c7.53-1.43,11-6.28,12.41-13.29.29-1.45.77-2.85,1.26-4.59h8.8c-9.34,19.43-18.31,38.13-27.31,56.81-17.08,35.46-33.16,71.45-51.53,106.23-23.93,45.31-57.86,83.5-91.25,122-13.64,15.72-13.75,20.13-3,37.91-30.22,15.57-42.87,42.1-46.78,74.59,1.81.49,3,1.08,4.12,1.08,27.32.08,54.64.23,81.95-.12,2.47,0,5.53-2.94,7.21-5.29,5.68-8,10.85-16.26,16.22-24.43l1.32,1.14c-1.27,9.3-2.53,18.59-3.83,28.12h53.3c1.2-18.11,2-35.41,3.6-52.64.93-10.16,1.57-20.75,5-30.16,4.21-11.41,11.83-21.52,17-32.64Q1129.46,711,1202.41,553.62c5.35-11.51,10.88-22.93,16.33-34.39-.9,9.23-3.6,17.72-6,26.31-12,43.27-23.35,86.77-36.15,129.82-22.77,76.6-46.47,152.93-69.65,229.41-3.63,12,2.16,21.61,14.34,24.9,3.74,1,7.57,1.74,11.71,2.68-4,17.25-7.8,33.76-11.73,50.76h48.65c1.75-9.67,3.45-19,5.14-28.29l2.79-1.55c7.57,7.92,15,16,22.82,23.67,2.34,2.3,5.72,5,8.66,5,28.86.38,57.74.25,86.61.19,1.42,0,2.84-.66,4.65-1.1,1.26-33-7-61.51-34.31-82.39,7.72-7,12.79-14.49,9.76-24.39-7.92-25.87-8.71-52.54-8.94-79.18-.56-64.34,11.73-127.08,24.83-189.65,8.25-39.41,17.14-78.69,25.83-118,.44-2,1.29-4.36,2.75-5.62,17.55-15.18,28.4-35.22,39.08-55.11,12.16-22.63,24.12-45.54,33.8-69.29C1401.47,337.59,1399.3,317.64,1383,301.43Zm-81.46,15.25,53.09,7.23c-14.81,19.45-28.36,37.22-41.52,54.49C1291.57,361.06,1296.34,339.58,1301.51,316.68Zm-3.74,56.24L1197.23,395.4c3.44-9.24,8-12.49,15.94-13.38,26.14-2.95,52.16-6.89,78.24-10.4A8.61,8.61,0,0,1,1297.77,372.92Zm-2.54-45.13c-2.07,18.44,2,18.27-18.17,20.68-17.15,2-34.25,4.5-51.39,6.77-1.27-14.81,1.15-18.05,14.72-19.93C1258.37,332.81,1276.35,330.37,1295.23,327.79ZM1059.5,604.88c-.42,3.37-4.22,7.84-7.42,8.86-2.66.85-8.42-1.78-9.71-4.39-1.94-3.93-3.1-10.3-1.16-13.66,3.86-6.71,10-12.08,15.27-18l3.37,1.81C1059.85,588,1060.57,596.54,1059.5,604.88Zm5.37-5.88c2-10.75-7.08-21.83,1.22-31.79,3.22,6.06,6.22,12,9.46,17.72C1079.12,591.28,1074.29,598.42,1064.87,599Zm12.19-19.69c-5.19-4.45-5.19-4.45,2.3-36-1.56,1.8-3.18,3.55-4.68,5.4-10.92,13.46-21.5,27.22-32.9,40.26-3.72,4.26-9.32,7.18-14.56,9.63-2.1,1-6.38-.11-8.1-1.83-1.09-1.08.43-5.17,1.28-7.74,2.08-6.3,4.48-12.49,6.7-18.75,1.1-3.12,1.42-6.72,3.19-9.36,8.63-12.87,16.47-26.54,26.74-38,26.6-29.65,45-64.45,64.86-98.42Q1155,368,1188.15,311.4c8.89-15.12,24-26.26,42.71-31.34-1.12,11.06-2.15,21.14-2.87,28.24L1208,323l1.84,2.61,15-10.34,2.14,1.65c-4.85,19.75-3.07,41-20.19,57.61-12.56,12.16-22.47,27.16-23.61,46-.21,3.47-2.17,7.06-4,10.18q-39.79,67.17-79.83,134.21a6.21,6.21,0,0,1-1.31,1.24C1081.11,562.83,1080.77,563,1077.06,579.31ZM957,925c-3-3.47-6.16-5.58-6.12-7.64s3.16-4.88,5.43-5.48c1.38-.36,5.19,2.81,5.25,4.49C961.64,918.71,959.22,921.12,957,925Zm262.22-10.29c-2.73-.81-4.61-4.44-6.86-6.88,2.31-1.94,4.52-5.26,7-5.44,2.27-.16,4.78,3,9.07,6.08C1224,911.66,1221,915.27,1219.21,914.74ZM1305,532.93c-13.2,60.79-26,121.76-35.81,183.15-8,49.69-8.26,100.08.67,150.07.1.52-.31,1.13-.65,2.26a32,32,0,0,1-5.08-1.26c-13.52-5.77-26.85-4.28-37.84,4.55-20.21,16.23-42,19.34-66.39,12.68-17.6-4.82-33.07-.21-47.52,14.73,5.84-19.07,11.06-35.92,16.16-52.8,19.8-65.51,39.91-130.93,59.23-196.59,12.67-43.05,24.41-86.38,36-129.73,3.18-11.83,10.15-20.4,19.06-27.84,12.07-10.09,20.65-22.07,22.49-39.2l-8.56-1.25c-1.33-14.35-2.6-28-3.87-41.72l-2.67-.22c-.09,6.93-.46,13.87-.16,20.79.15,3.33,2,6.56,2.34,9.92.78,7.08.11,12.69-8.84,15.3-7.23,2.11-13.56,7.31-20.29,11.15l1.71,3,17.19-10.18,1.18,1.26c-9.92,20.44-20.13,40.74-29.7,61.34-56,120.53-112.31,240.94-167.44,361.88-10.2,22.36-43.71,32-62.66,14.26-23.78-22.19-37.24-24.51-67.17-18.82,8-9.37,14.57-17.6,21.68-25.35,50.89-55.51,87.58-119.6,117.54-188.4,31.94-73.35,68.61-144.43,113-211.27,3.16-4.76,6.2-7.29,12.41-7.42,13.48-.29,24.61-5.88,31.48-18.12,1-1.87,1.3-4.21,1-7.15-7.91,14.67-19.44,22.15-34.14,21.24,3.73-12.82,6.65-26,11.66-38.28,1.63-4,8.7-5.8,14.7-9.48,1.73,7.75,3,13.16,4.16,18.58l2.43-.19a88.06,88.06,0,0,0-.65-9.77c-.93-5.21.47-7.8,6.14-9,29.33-6.37,58.56-13.16,89.46-20.17-1.09,9.86-3.36,19-2.72,27.85s4.19,17.43,6.46,26.13l-2,2.1-18.14-17.62c-.39,6.83,4.94,15.69,14.38,18.75,8.08,2.62,9.06,7.83,9.7,14.56C1317.69,476.12,1311.25,504.32,1305,532.93Zm12.1-98.7c-2.09-6.57-3.41-10.73-4.94-15.51l15.21-10.32Zm70.62-70.59c-15.31,32.76-33.93,64-51.84,95.48-2.54,4.46-9.23,6.57-13.8,9.64-9.82-26.65,5.49-46.72,8.74-69.3l-18.19,15.75-3.24-1.52c.33-3-.36-6.78,1.18-8.95,4.51-6.35,6.74-12.1-.23-17.16l58-77.67-2.32-2.2c-.9.38-2.33.53-2.61,1.17-4.65,10.76-12.33,12.36-23.23,9.81-12-2.79-24.41-3.49-37.21-5.18-.22-12.24,8.87-13.18,16.64-15.5l-.45-2.45-13.79,2.26c0-.1-.54-.68-.45-1.17,3.82-21.51-1-20.45,22.4-16.15A147.86,147.86,0,0,1,1361,290.69C1392.59,304.92,1403.12,330.76,1387.76,363.64Z"/><path d="M1375,981.66c13.77-20,30.52-31.49,53.19-33.29,3.71-.29,7.43-.39,11.15-.6,18.57-1,22.06-3.82,27.2-21.66,13-45.25,67.68-69,108.76-46.71a62.5,62.5,0,0,1,19.09,15.9c19.63,25.11,23.31,55.14,25.61,86.36Zm165.65-102.34c-20.1.58-36.72,13.35-43.6,32.86a50.2,50.2,0,0,0,15.22,55.47c15.08,12.72,38.89,15.58,54.81,6.05,1.9-1.14,3.41-5.5,2.81-7.77-2.26-8.66-5.42-17.09-8.32-25.58C1554.59,919.92,1547.57,899.5,1540.65,879.32Z"/><path d="M1520.9,837.77q-2.67-16.53-5.33-33l2.15-.35q2.88,16.82,5.74,33.62Z"/><path d="M1551.53,836.65q5-16,9.91-32l2.09.64q-4.9,16.33-9.8,32.67Z"/><path d="M1579.89,844.8l23.82-23.52,1.54,1.55-24,24.19Z"/><path class="cls-1" d="M1265.39,453l-8.56-1.25c-1.33-14.35-2.6-28-3.87-41.72l-2.67-.22c-.09,6.93-.46,13.87-.16,20.79.15,3.33,2,6.56,2.34,9.92.78,7.08.11,12.69-8.84,15.3-7.23,2.11-13.56,7.31-20.29,11.15l1.71,3,17.19-10.18,1.18,1.26c-9.92,20.44-20.13,40.74-29.7,61.34-56,120.53-112.31,240.94-167.44,361.88-10.2,22.36-43.71,32-62.66,14.26-23.78-22.19-37.24-24.51-67.17-18.82,8-9.37,14.57-17.6,21.68-25.35,50.89-55.51,87.58-119.6,117.54-188.4,31.94-73.35,68.61-144.43,113-211.27,3.16-4.76,6.2-7.29,12.41-7.42,13.48-.29,24.61-5.88,31.48-18.12,1-1.87,1.3-4.21,1-7.15-7.91,14.67-19.44,22.15-34.14,21.24,3.73-12.82,6.65-26,11.66-38.28,1.63-4,8.7-5.8,14.7-9.48,1.73,7.75,3,13.16,4.16,18.58l2.43-.19a88.06,88.06,0,0,0-.65-9.77c-.93-5.21.47-7.8,6.14-9,29.33-6.37,58.56-13.16,89.46-20.17-1.09,9.86-3.36,19-2.72,27.85s4.19,17.43,6.46,26.13l-2,2.1-18.14-17.62c-.39,6.83,4.94,15.69,14.38,18.75,8.08,2.62,9.06,7.83,9.7,14.56,2.79,29.49-3.65,57.69-9.86,86.3-13.2,60.79-26,121.76-35.81,183.15-8,49.69-8.26,100.08.67,150.07.1.52-.31,1.13-.65,2.26a32,32,0,0,1-5.08-1.26c-13.52-5.77-26.85-4.28-37.84,4.55-20.21,16.23-42,19.34-66.39,12.68-17.6-4.82-33.07-.21-47.52,14.73,5.84-19.07,11.06-35.92,16.16-52.8,19.8-65.51,39.91-130.93,59.23-196.59,12.67-43.05,24.41-86.38,36-129.73,3.18-11.83,10.15-20.4,19.06-27.84C1255,482.06,1263.55,470.08,1265.39,453Zm3.21-56.16c-5.07-3.56-8.17-7.42-10.76-7.1-2.87.35-5.28,4.51-7.88,7,2.56,2.59,4.9,6.87,7.77,7.26C1260.31,404.31,1263.47,400.39,1268.6,396.79Z"/><path class="cls-2" d="M1230.86,280.06c-1.12,11.06-2.15,21.14-2.87,28.24L1208,323l1.84,2.61,15-10.34,2.14,1.65c-4.85,19.75-3.07,41-20.19,57.61-12.56,12.16-22.47,27.16-23.61,46-.21,3.47-2.17,7.06-4,10.18q-39.79,67.17-79.83,134.21a5.77,5.77,0,0,1-1.32,1.23c-16.92-3.32-17.26-3.11-21,13.16-5.19-4.45-5.19-4.45,2.3-36-1.56,1.8-3.18,3.55-4.68,5.4-10.92,13.46-21.5,27.22-32.9,40.26-3.72,4.26-9.32,7.18-14.56,9.63-2.1,1-6.38-.11-8.1-1.83-1.09-1.08.43-5.17,1.28-7.74,2.08-6.3,4.48-12.49,6.7-18.75,1.1-3.12,1.42-6.72,3.19-9.36,8.63-12.87,16.47-26.54,26.74-38,26.6-29.65,45-64.45,64.86-98.42Q1155,368,1188.15,311.4C1197,296.28,1212.11,285.14,1230.86,280.06Z"/><path class="cls-3" d="M1322.12,468.76c-9.82-26.65,5.49-46.72,8.74-69.3l-18.19,15.75-3.24-1.52c.33-3-.36-6.78,1.18-8.95,4.51-6.35,6.74-12.1-.23-17.16l58-77.67-2.32-2.2c-.9.38-2.33.53-2.61,1.17-4.65,10.76-12.33,12.36-23.23,9.81-12-2.79-24.41-3.49-37.21-5.18-.22-12.24,8.87-13.18,16.64-15.5l-.45-2.45-13.79,2.26c0-.1-.54-.68-.45-1.17,3.82-21.51-1-20.45,22.4-16.15A147.86,147.86,0,0,1,1361,290.69c31.61,14.23,42.14,40.07,26.78,72.95s-33.93,64-51.84,95.48C1333.38,463.58,1326.69,465.69,1322.12,468.76Z"/><path class="cls-4" d="M1295.23,327.79c-2.07,18.44,2,18.27-18.17,20.68-17.15,2-34.25,4.5-51.39,6.77-1.27-14.81,1.15-18.05,14.72-19.93C1258.37,332.81,1276.35,330.37,1295.23,327.79Z"/><path class="cls-5" d="M1197.23,395.4c3.44-9.24,8-12.49,15.94-13.38,26.14-2.95,52.16-6.89,78.24-10.4a8.61,8.61,0,0,1,6.36,1.3Z"/><path class="cls-6" d="M1059.85,579.49c0,8.48.72,17-.35,25.39-.42,3.37-4.22,7.84-7.42,8.86-2.66.85-8.42-1.78-9.71-4.39-1.94-3.93-3.1-10.3-1.16-13.66,3.86-6.71,10-12.08,15.27-18Z"/><path class="cls-7" d="M1290.6,214.93c-.37.49-.75,1-1.13,1.41a51.16,51.16,0,0,1-5.87,5.63c2.6,1.14,5.44.9,8.8-2.69a7.9,7.9,0,0,0,2-6.8C1293.1,213.31,1291.83,214.15,1290.6,214.93Z"/><path class="cls-6" d="M1064.87,599c2-10.75-7.08-21.83,1.22-31.79,3.22,6.06,6.22,12,9.46,17.72C1079.12,591.28,1074.29,598.42,1064.87,599Z"/><path class="cls-7" d="M1260.24,230l-.74-.39-.78.71,10,18v-16.2A7.05,7.05,0,0,1,1260.24,230Z"/><path class="cls-7" d="M1228.37,908.5c-4.41,3.16-7.4,6.77-9.16,6.24-2.73-.81-4.61-4.44-6.86-6.88,2.31-1.94,4.52-5.26,7-5.44C1221.57,902.26,1224.08,905.44,1228.37,908.5Z"/><path class="cls-7" d="M1278.59,225.58a4.15,4.15,0,0,0-.94.56,7.32,7.32,0,0,1-1.25,1.56,7.1,7.1,0,0,1-4.32,3.75c0,2.94,0,6,0,9.16,3.19-5.82,6-10.87,8.63-15.73l-.25-.47A9.18,9.18,0,0,1,1278.59,225.58Z"/><path class="cls-7" d="M957,925c-3-3.47-6.16-5.58-6.12-7.64s3.16-4.88,5.43-5.48c1.38-.36,5.19,2.81,5.25,4.49C961.64,918.71,959.22,921.12,957,925Z"/><path class="cls-8" d="M1540.65,879.32c6.92,20.18,13.94,40.6,20.92,61,2.9,8.49,6.06,16.92,8.32,25.58.6,2.27-.91,6.63-2.81,7.77-15.92,9.53-39.73,6.67-54.81-6.05a50.2,50.2,0,0,1-15.22-55.47C1503.93,892.67,1520.55,879.9,1540.65,879.32Zm-26.53,27.42c-6,7-7.77,22.56-3.1,28.59.82,1.06,5.2,1.13,6,.1C1521.66,929.84,1519.94,913.61,1514.12,906.74Z"/><path d="M1268.6,396.79c-5.13,3.6-8.29,7.52-10.87,7.17-2.87-.39-5.21-4.67-7.77-7.26,2.6-2.5,5-6.66,7.88-7C1260.43,389.37,1263.53,393.23,1268.6,396.79Z"/><path d="M1319.4,209v5.47c-.57,4-2.92,7.09-5.47,10.06-1.53,1.78-3,3.64-4.39,5.51a1.77,1.77,0,0,0-.31,1.47c2.2,4.28,1.22,8.06-1.63,11.61s-5.67,7.26-8.67,10.74a26.17,26.17,0,0,1-5.08,4.61c-3.82,2.62-7.8,2.58-11.68-.06l-1.29-.88c-2,2.44-4,4.83-5.84,7.29a10.79,10.79,0,0,1-6.39,4.09c-.65.15-1.28.35-1.92.53h-5.47c-.36-.11-.71-.25-1.07-.33-4.78-1-7.61-4.12-8.11-9a37.81,37.81,0,0,1,0-4.88c0-.91.17-1.82.31-3.16a21.36,21.36,0,0,1-1.53,1.87,48,48,0,0,1-5.33,5c-3.33,2.33-6.93,2.28-10.41.14a19.24,19.24,0,0,1-6.46-6.63,9.82,9.82,0,0,1,.6-11.68c1-1.39,2.14-2.71,3.21-4.06.25-.32.47-.66.79-1.12a55.53,55.53,0,0,1-5.79,0c-5-.57-8-3.34-9.12-8.22-.13-.54-.33-1.07-.5-1.61V220c.64-3.71,3-6.43,5.28-9.19,1.57-1.87,3.09-3.79,4.57-5.74a1.67,1.67,0,0,0,.31-1.35c-2-4.35-.78-8.13,2-11.64s5.58-7.07,8.48-10.52a29.72,29.72,0,0,1,4.46-4.44c3.85-3,7.92-3,12-.27.43.29.85.6,1.39,1,2.12-2.64,4.26-5.21,6.29-7.86a10.48,10.48,0,0,1,6.57-4,10.4,10.4,0,0,0,1.09-.31h5.47c.68.19,1.36.4,2,.57,4.35,1.12,7,3.88,7.7,8.31a42,42,0,0,1,.13,6.15c0,.58-.12,1.16-.2,1.93,1.54-1.62,2.79-3.13,4.24-4.43,3.61-3.26,7.83-4,11.66-2a22.79,22.79,0,0,1,5,3.75c5.29,5.15,5.52,10.11.92,15.88l-3.18,4c2,0,3.73-.09,5.44,0,5.25.36,8.47,3.17,9.64,8.29C1319.16,208.43,1319.29,208.73,1319.4,209Zm-55.46,25.5c-.17.64-.36,1.32-.55,2a34.73,34.73,0,0,0-1.57,11.77c.33,4.6,2.77,7.7,6.89,8.66a18.24,18.24,0,0,0,8.41,0c4.42-1,7-3.9,7.39-8.43a22.92,22.92,0,0,0-.11-5.3c-.33-2.42-.93-4.8-1.49-7.61.58,1,.95,1.67,1.34,2.33a28.46,28.46,0,0,0,6.57,8.11c3.61,2.85,7.53,3.21,11.29.55a25.29,25.29,0,0,0,5.5-5.38,7.87,7.87,0,0,0-.11-10.25,37.43,37.43,0,0,0-5.9-5.62,56.14,56.14,0,0,0-5.48-3.51,7.24,7.24,0,0,1,1.82.34c4.1,1.09,8.21,2,12.48,1.25a8.69,8.69,0,0,0,7.25-6.56,18,18,0,0,0,.31-8.69c-.86-4.17-3.5-6.71-7.74-7.16a31.49,31.49,0,0,0-6.86.14c-2.38.29-4.71,1-7.07,1.46a10.43,10.43,0,0,1,1.79-1.21c3.35-2,6.59-4.12,9-7.25,2.9-3.76,3-7.59.19-11.37a22.78,22.78,0,0,0-4-4.09c-4.56-3.65-9.28-3.53-13.43.61a63.23,63.23,0,0,0-5.61,7.24,29.47,29.47,0,0,0-1.51,2.55,10.55,10.55,0,0,1,.47-2.44,30.79,30.79,0,0,0,1.34-10.79c-.38-4.55-2.79-7.7-7.15-8.61a23,23,0,0,0-7.54-.33c-5.07.66-7.92,3.83-8,8.94a59.26,59.26,0,0,0,1,9.54,47.3,47.3,0,0,0,1.44,5.4c-1.1-1.67-1.92-3.49-3.09-5a51.85,51.85,0,0,0-6.38-7.52c-3.56-3.2-7.65-3.15-11.42-.24a22.22,22.22,0,0,0-4.23,4.27c-3.43,4.61-3.28,9,.81,13.06,2.41,2.4,5.44,4.18,8.21,6.22a16.1,16.1,0,0,0,1.62.92,4.07,4.07,0,0,1-1.77-.18c-4-1-8-1.93-12.21-1.34-4.35.61-7.17,3.08-7.83,7.4a23.1,23.1,0,0,0,0,7.14c.89,5.3,4.27,8,9.69,8.2A34.12,34.12,0,0,0,1248.5,222l1.33-.34a13.2,13.2,0,0,1-2.54,1.74c-3.3,2-6.48,4.13-8.7,7.39a8.54,8.54,0,0,0-.85,9,17,17,0,0,0,7.18,7.63,7.78,7.78,0,0,0,8.58-.25,21.08,21.08,0,0,0,4.76-4.32C1260.32,240.25,1262,237.36,1263.94,234.54Z"/><path class="cls-7" d="M1263.94,234.54c-1.9,2.82-3.62,5.71-5.68,8.34a21.25,21.25,0,0,1-4.75,4.32,7.79,7.79,0,0,1-8.59.25,17.12,17.12,0,0,1-7.18-7.64,8.54,8.54,0,0,1,.85-9c2.22-3.25,5.4-5.4,8.7-7.38a14.06,14.06,0,0,0,2.55-1.74l-1.34.34a34.1,34.1,0,0,1-10.75,1.66c-5.43-.21-8.81-2.91-9.7-8.21a23,23,0,0,1,0-7.13c.66-4.32,3.49-6.79,7.83-7.41,4.18-.58,8.21.31,12.21,1.34a3.92,3.92,0,0,0,1.77.19,16.1,16.1,0,0,1-1.62-.92c-2.77-2-5.79-3.82-8.21-6.22-4.09-4.05-4.24-8.45-.81-13.06a22.51,22.51,0,0,1,4.23-4.27c3.77-2.91,7.86-3,11.42.24a51.85,51.85,0,0,1,6.38,7.52c1.17,1.55,2,3.37,3.09,5a47.3,47.3,0,0,1-1.44-5.4,59.15,59.15,0,0,1-1-9.54c.07-5.11,2.92-8.28,8-8.94a23,23,0,0,1,7.54.33c4.37.91,6.77,4.06,7.15,8.61a30.79,30.79,0,0,1-1.34,10.79,10.55,10.55,0,0,0-.47,2.44,29.47,29.47,0,0,1,1.51-2.55,62.37,62.37,0,0,1,5.61-7.24c4.15-4.14,8.87-4.26,13.43-.61a22.78,22.78,0,0,1,4,4.09c2.84,3.78,2.71,7.61-.19,11.37-2.43,3.13-5.67,5.27-9,7.25a10.43,10.43,0,0,0-1.79,1.21c2.36-.5,4.69-1.17,7.07-1.46a31.49,31.49,0,0,1,6.86-.14c4.24.45,6.88,3,7.74,7.16a18,18,0,0,1-.31,8.69,8.69,8.69,0,0,1-7.25,6.56c-4.27.79-8.38-.16-12.48-1.25a7.24,7.24,0,0,0-1.82-.34,56.14,56.14,0,0,1,5.48,3.51,37.43,37.43,0,0,1,5.9,5.62,7.87,7.87,0,0,1,.11,10.25,25.29,25.29,0,0,1-5.5,5.38c-3.76,2.66-7.68,2.3-11.29-.55a28.46,28.46,0,0,1-6.57-8.11c-.39-.66-.76-1.32-1.34-2.33.56,2.81,1.16,5.19,1.49,7.61a22.92,22.92,0,0,1,.11,5.3c-.41,4.53-3,7.38-7.39,8.43a18.11,18.11,0,0,1-8.41,0c-4.12-1-6.56-4.06-6.89-8.66a34.73,34.73,0,0,1,1.57-11.77C1263.58,235.86,1263.77,235.18,1263.94,234.54ZM1295.08,212a22.09,22.09,0,1,0-22.29,22.1A22.14,22.14,0,0,0,1295.08,212Z"/><path d="M1295.08,212a22.09,22.09,0,1,1-21.74-22.1A22,22,0,0,1,1295.08,212Zm-1.23.05a20.87,20.87,0,1,0-21.11,20.84A20.73,20.73,0,0,0,1293.85,212.08Z"/><path class="cls-9" d="M1293.85,212.08a20.87,20.87,0,1,1-20.59-20.91A20.74,20.74,0,0,1,1293.85,212.08Zm-35.32,2.29-.06,0-1.36-.52a8.23,8.23,0,0,0,.43,1.49c.42.88,1,1.68,1.41,2.57,2.55,5.65,6.9,8.91,13.07,9.31,6.5.42,11.32-2.55,14.53-8.18.76-1.34,1.53-2.68,2.23-4.05a3.17,3.17,0,0,0,0-1.2,9.45,9.45,0,0,1-1.07.32,3.71,3.71,0,0,1-1,.06,9.11,9.11,0,0,1-1.14-.3c.08.43.18.85.25,1.29a4.37,4.37,0,0,1,.19,1.76,13.88,13.88,0,0,1-26.16-.33,2.19,2.19,0,0,1,0-1c.14-.59.37-1.15.56-1.73Zm7.67-4.19a5.57,5.57,0,0,0,5.35-4.36c.07-.42-.36-.92-.56-1.39-.35.31-.88.54-1,.93-.84,2.12-2,3.07-3.81,3.06s-2.87-.95-3.75-3.13c-.15-.37-.72-.57-1.09-.84-.19.43-.58.89-.52,1.28A5.58,5.58,0,0,0,1266.2,210.18Zm13.6,0a5.6,5.6,0,0,0,5.34-4.2c.08-.47-.32-1-.49-1.55-.36.35-.87.64-1,1.06a4,4,0,0,1-3.82,2.93c-1.75,0-3-1-3.7-2.87-.18-.45-.77-.74-1.16-1.1-.15.54-.5,1.13-.4,1.62A5.59,5.59,0,0,0,1279.8,210.19Z"/><path d="M1258.53,214.37l1.86-.58c-.19.58-.42,1.14-.56,1.72a2.23,2.23,0,0,0,0,1.06,13.91,13.91,0,0,0,13,9.4,13.76,13.76,0,0,0,13.18-9.08,4.41,4.41,0,0,0-.19-1.76c-.07-.43-.16-.86-.25-1.29a7.7,7.7,0,0,0,1.14.31,3.71,3.71,0,0,0,1-.06,10.86,10.86,0,0,0,1.07-.32,3.11,3.11,0,0,1,0,1.19c-.7,1.38-1.47,2.72-2.23,4.06-3.21,5.63-8,8.59-14.53,8.18-6.17-.4-10.52-3.66-13.07-9.32-.41-.88-1-1.69-1.41-2.56a8.23,8.23,0,0,1-.43-1.49l1.36.52Z"/><path d="M1266.2,210.18a5.59,5.59,0,0,1-5.42-4.45c-.06-.39.34-.85.52-1.28.37.27.94.47,1.09.84.88,2.18,1.95,3.12,3.76,3.13s3-.94,3.81-3.06c.15-.39.68-.62,1-.93.2.47.63,1,.56,1.39A5.57,5.57,0,0,1,1266.2,210.18Z"/><path d="M1279.8,210.19a5.59,5.59,0,0,1-5.27-4.11c-.1-.49.26-1.08.4-1.62.4.36,1,.65,1.16,1.1.74,1.84,2,2.85,3.71,2.87a4,4,0,0,0,3.82-2.93c.16-.42.68-.71,1-1.06.18.52.58,1.08.49,1.55A5.6,5.6,0,0,1,1279.8,210.19Z"/><rect class="cls-8" x="1501.96" y="901.07" width="35.12" height="40.78" rx="12"/><path class="cls-10" d="M1514.12,906.74c5.82,6.87,7.54,23.1,3,28.69-.85,1-5.23,1-6-.1C1506.35,929.3,1508.1,913.69,1514.12,906.74Z"/><circle cx="1519.69" cy="892.03" r="2.98"/><circle cx="1531.9" cy="904.23" r="2.98"/><path class="cls-5" d="M873.38,981.58s-.89-46.78,39.63-68.53,41.71,0,55.72-23.24a50.18,50.18,0,0,0,39.33,19.07c25.92,0,31-9.83,31-9.83l-5.5,84H980.21s3.13-23.73,4.92-33.5c2.54-13.86-4.17-2.45-28.92,33.5Z"/><path class="cls-5" d="M1145.86,891.67c0-1.15-23,89-23,89h47.67l2.78-28.25s25,10.31,31,28.25h96.54s7.94-50.39-19.07-67.19-46.09-21.77-46.09-21.77V873s-17.08,18.71-46.08,18.71Z"/><circle class="cls-11" cx="971.18" cy="914.56" r="5.96"/><circle class="cls-11" cx="1185.31" cy="914.56" r="5.96"/><path class="cls-5" d="M1238.54,280.06l-4.77,47.73,60.09-5.85,7.05-52.46s-10.22-2.42-11.86,0-5.62,19.09-20.32,19.49-21.23-15.89-21.23-15.89l-9,4.91"/><path d="M358.55,356v19.66h40.12v12.89H358.55v32.21H344.42V343.09h58.43V356Z"/><path d="M414.72,341.74h13.79v79H414.72Z"/><path d="M440.71,391.46c0-16.61,14.35-30.51,31.31-30.51s31.3,13.9,31.3,30.51S489,422.09,472,422.09,440.71,408.08,440.71,391.46Zm49.05,0c0-10.17-8.14-18.76-17.74-18.76s-17.86,8.59-17.86,18.76,8.14,18.88,17.86,18.88S489.76,401.75,489.76,391.46Z"/><path d="M550.34,361V372.7c-12.55,0-20.91,7.46-20.91,18.54v29.5H515.64V362.31h13.79v11.3C533.16,365.81,540.73,361,550.34,361Z"/><path d="M611,385.59v35.15H597.58v-7c-4.3,5.42-11.64,8.36-18.42,8.36-12.43,0-21.81-7.34-21.81-18.65,0-11.52,10.73-19.43,23.84-19.43a46.73,46.73,0,0,1,16.39,3.16v-1.58c0-6.78-3.73-13.34-14.35-13.34-5.54,0-10.85,1.92-15.83,4.41l-4.74-9.61c8.25-4.07,15.93-6.1,23.28-6.1C601.42,361,611,370.78,611,385.59Zm-13.45,16.84v-6.56a44.47,44.47,0,0,0-14.35-2.26c-6.9,0-12.44,3.84-12.44,9.38s4.86,9,11.42,9S596,408.64,597.58,402.43Z"/><path d="M691,417.46a19.86,19.86,0,0,1-12.43,4.63c-9.72,0-16.5-7-16.5-16.84V373.72h-8.47V362.31h8.47V346.26h13.45v16.05h13.22v11.41H675.56v29.84c0,3.95,2.49,6.78,5.76,6.78a8.37,8.37,0,0,0,5.77-2.15Z"/><path d="M700.88,345.58a7.86,7.86,0,1,1,7.91,7.91A8,8,0,0,1,700.88,345.58Zm.9,16.73h13.79v58.43H701.78Z"/><path d="M819.66,383.55v37.19H806.21V385.81c0-7.68-4.64-13.11-11.3-13.11-7.58,0-12.78,5.09-12.78,12.21v35.83H768.69V385.81c0-7.68-4.64-13.11-11.42-13.11-7.46,0-12.77,5.09-12.77,12.21v35.83H730.71V362.31H744.5v7.91c2.94-5.65,8.93-9.27,16.27-9.27A20.45,20.45,0,0,1,779.42,372c2.83-6.79,10.17-11.08,18.88-11.08C810.5,361,819.66,370.33,819.66,383.55Z"/><path d="M877,404l8.7,9c-5.09,5.42-15.26,9-23.73,9-16.73,0-30.52-12.77-30.52-30.74,0-17.52,13.11-30.4,29.72-30.4,18.09,0,28.6,13.67,28.6,35.26H845.65c1.7,8,7.8,13.68,16.16,13.68C867.24,409.89,873.68,407.4,877,404Zm-31.2-18.31H876.5c-1.58-7.35-6.55-12.54-14.8-12.54C854,373.16,847.8,378,845.76,385.7Z"/><text class="cls-12" transform="translate(344.42 491.62)">Diseñadora gráfica</text><path d="M454.49,570.07a5.18,5.18,0,0,1-4.09-2.78,5.05,5.05,0,0,1,2.1-6.75,5.16,5.16,0,0,1,4.13-.21c-.73-4,.33-6.31,3.16-7.15,2.66-.8,4.85.68,6.2,4.24a5.1,5.1,0,0,1,4.85-2.14,4.57,4.57,0,0,1,2.84,1.56,5,5,0,0,1,1.24,3.83,5.68,5.68,0,0,1-1.93,3.67,5.16,5.16,0,0,1,4.17,3,4.87,4.87,0,0,1,.32,3.36,5,5,0,0,1-2.56,3.23c-.91.47-1.08.48-4.13.26a5.47,5.47,0,0,1-.33,5,4.74,4.74,0,0,1-2.74,2.1c-2.71.8-4.74-.56-6.26-4.25a5,5,0,0,1-4.65,2.19,4.55,4.55,0,0,1-2.89-1.45,5.07,5.07,0,0,1-1.37-3.92A5.7,5.7,0,0,1,454.49,570.07Zm9.26,1.52a4.38,4.38,0,1,0-4.25-4.41A4.34,4.34,0,0,0,463.75,571.59Z"/><path d="M487.57,570.07a5.18,5.18,0,0,1-4.09-2.78,5,5,0,0,1,2.11-6.75,5.16,5.16,0,0,1,4.13-.21c-.73-4,.32-6.31,3.15-7.16,2.66-.79,4.86.69,6.21,4.25a5.09,5.09,0,0,1,4.85-2.14,4.57,4.57,0,0,1,2.83,1.56,5,5,0,0,1,1.24,3.83,5.71,5.71,0,0,1-1.93,3.67,5.16,5.16,0,0,1,4.17,3,4.81,4.81,0,0,1,.32,3.36,4.9,4.9,0,0,1-2.55,3.23c-.91.47-1.09.48-4.13.26a5.48,5.48,0,0,1-.34,5,4.72,4.72,0,0,1-2.74,2.1c-2.71.8-4.74-.56-6.26-4.25a5,5,0,0,1-4.64,2.19,4.58,4.58,0,0,1-2.9-1.45,5,5,0,0,1-1.36-3.93A5.71,5.71,0,0,1,487.57,570.07Zm9.26,1.51a4.38,4.38,0,1,0-4.25-4.4A4.32,4.32,0,0,0,496.83,571.58Z"/><path d="M523.77,570.07a5.21,5.21,0,0,1-4.09-2.78,5,5,0,0,1,2.11-6.75,5.16,5.16,0,0,1,4.13-.21c-.73-4,.32-6.32,3.15-7.16,2.66-.79,4.86.69,6.2,4.25a5.11,5.11,0,0,1,4.86-2.14,4.57,4.57,0,0,1,2.83,1.56,5,5,0,0,1,1.24,3.82,5.7,5.7,0,0,1-1.93,3.68,5.16,5.16,0,0,1,4.17,3,4.81,4.81,0,0,1,.32,3.36,4.9,4.9,0,0,1-2.55,3.23c-.92.47-1.09.48-4.13.26a5.51,5.51,0,0,1-.34,5,4.72,4.72,0,0,1-2.74,2.1c-2.71.8-4.74-.56-6.26-4.25a5,5,0,0,1-4.64,2.19,4.52,4.52,0,0,1-2.9-1.46,5.05,5.05,0,0,1-1.37-3.92A5.67,5.67,0,0,1,523.77,570.07Zm9.26,1.51a4.38,4.38,0,1,0-4.25-4.4A4.32,4.32,0,0,0,533,571.58Z"/><path d="M559.66,570.07a5.17,5.17,0,0,1-4.09-2.78,4.88,4.88,0,0,1-.44-3.42,5,5,0,0,1,2.54-3.33,5.16,5.16,0,0,1,4.13-.21c-.73-4,.32-6.31,3.15-7.15,2.66-.8,4.86.68,6.21,4.24a5.09,5.09,0,0,1,4.85-2.14,4.62,4.62,0,0,1,2.84,1.56,5.06,5.06,0,0,1,1.23,3.83,5.68,5.68,0,0,1-1.93,3.67,5.16,5.16,0,0,1,4.17,3,4.81,4.81,0,0,1,.32,3.36,4.9,4.9,0,0,1-2.55,3.23c-.91.47-1.08.48-4.13.26a5.47,5.47,0,0,1-.34,5,4.69,4.69,0,0,1-2.73,2.1c-2.71.8-4.75-.56-6.26-4.25a5,5,0,0,1-4.65,2.19,4.58,4.58,0,0,1-2.9-1.45,5.06,5.06,0,0,1-1.36-3.92A5.7,5.7,0,0,1,559.66,570.07Zm9.25,1.52a4.38,4.38,0,1,0-4.24-4.41A4.33,4.33,0,0,0,568.91,571.59Z"/><path class="cls-1" d="M1404.09,240.76c1.28,4.77,1.55,10.21,4.14,14.11s7.4,6,10.76,8.51c-3.1,2.08-8.21,4-10.93,7.75s-2.84,9-4.11,13.62l-1.26.07c-1.14-4.78-1.2-10.27-3.74-14.13-2.37-3.61-7.38-5.48-10.73-7.78,3-2.24,7.8-4.51,10.4-8.32s2.9-9.12,4.21-13.77Z"/><path class="cls-1" d="M1379.28,143.8c-3.56-8.35-2.94-19.07-16.27-20.4,11.74-2.48,12.94-11.88,15.36-22.91,4.46,10.08,2.78,21.88,17,22.74C1383.7,125.88,1380.31,133.74,1379.28,143.8Z"/><path class="cls-1" d="M1145.15,203.21c1.83,4.52,1.39,10.26,8.52,11.11-6.31,1.21-7.05,6.23-8.46,12.13-2.29-5.45-1.27-11.77-8.88-12.37C1142.61,212.78,1144.5,208.6,1145.15,203.21Z"/><path class="cls-1" d="M1213.68,75.86c3.4,8.42,2.59,19.13,15.88,20.7-11.77,2.26-13.15,11.64-15.77,22.62-4.28-10.16-2.38-21.93-16.56-23.05C1208.93,93.7,1212.46,85.9,1213.68,75.86Z"/></svg>