<svg id="Layer_1" data-name="Layer 1" xmlns="http://www.w3.org/2000/svg" viewBox="0 0 1920 1080"><defs><style>.cls-1{fill:#f8bb0b;}.cls-2{fill:#ef759a;}.cls-3{fill:#ee769c;}.cls-4{fill:#2ca16c;}.cls-5{fill:#276fb7;}.cls-6{fill:#d15d83;}.cls-7{fill:#fff;}.cls-8{fill:#ffe8a8;}.cls-9{fill:#f3c500;}.cls-10{fill:none;stroke:#000;stroke-miterlimit:10;}.cls-11{fill:#cbe227;}.cls-12{font-size:38.66px;font-family:Metropolis-ExtraLightItalic, Metropolis;font-weight:200;font-style:italic;letter-spacing:0.02em;}</style></defs><path class="cls-1" d="M1172.07,316.17c1.83,4.52,1.39,10.26,8.52,11.1-6.31,1.22-7,6.24-8.46,12.13-2.29-5.44-1.27-11.76-8.88-12.36C1169.53,325.74,1171.42,321.55,1172.07,316.17Z"/><path d="M1383,301.43c-12.09-12-27.28-18.12-43.48-21.88-10.41-2.41-21-4-31.5-6,.5-3.9.89-6.9,1.34-10.4-3.08-.58-5.8-.94-8.45-1.6-8.65-2.17-14.3-.31-17.52,9.24-1.7,5-7.1,8.81-10.83,13.16-2-7.89-2.66-14.17-1.75-20.21.49-3.26,3-7.72,5.71-8.88,20.36-8.62,27.92-25.83,32.43-45.48-.87-.4-1.46-.94-2-.85-2.9.49-5.8,1.08-8.89,1.7-1.24.71-2.47,1.47-3.68,2.25a7.9,7.9,0,0,1-2,6.8c-3.36,3.59-6.2,3.83-8.8,2.69-.5.4-1,.8-1.5,1.19s-1.06.84-1.61,1.25l.25.47c-2.66,4.86-5.44,9.91-8.63,15.73,0-3.2,0-6.22,0-9.16a8.35,8.35,0,0,1-2.88.39c-.16.09-.31.15-.47.23v16.2l-10-18,.78-.71h0a18,18,0,0,1-2.7-1.69,16.81,16.81,0,0,1-2.92-3.1c-3.47-1.24-7.2-1.94-10.43-3.79-.33-.19-.64-.41-1-.63l-15.91-2.53c8.58,20.74,18.66,37,41.65,40.82-.51,8.31-1,16.23-1.5,24.25-7.47-1.74-6.69,2-16-20.05a27.56,27.56,0,0,0-5.05,1.82c-7.94,4.75-15.42,10.43-23.74,14.31-16.55,7.72-29.69,18.57-38.92,34.59-25.56,44.34-51.85,88.26-77.24,132.69-14.19,24.83-29.42,48.73-48,70.62-11,13-20.62,27.22-29.68,41.63a127.67,127.67,0,0,0-13.4,29.44c-3.36,10.72,3.94,16.9,14.57,13.64,2-.6,3.82-1.44,6-2.29.42,1.78.67,3,1,4.15,1.74,7,4.64,13.21,12.72,14.2,7.89,1,11.63-4.16,14.29-10.74a6.83,6.83,0,0,1,4.41-3.45c7.53-1.43,11-6.28,12.41-13.29.29-1.45.77-2.85,1.26-4.59h8.8c-9.34,19.43-18.31,38.13-27.31,56.81-17.08,35.46-33.16,71.45-51.53,106.23-23.93,45.31-57.86,83.5-91.25,122-13.64,15.72-13.75,20.13-3,37.91-30.22,15.57-42.87,42.1-46.78,74.59,1.81.49,3,1.08,4.12,1.08,27.32.08,54.64.23,81.95-.12,2.47,0,5.53-2.94,7.21-5.29,5.68-8,10.85-16.26,16.22-24.43l1.32,1.14c-1.27,9.3-2.53,18.59-3.83,28.12h53.3c1.2-18.11,2-35.41,3.6-52.64.93-10.16,1.57-20.75,5-30.16,4.21-11.41,11.83-21.52,17-32.64Q1129.46,711,1202.41,553.62c5.35-11.51,10.88-22.93,16.33-34.39-.9,9.23-3.6,17.72-6,26.31-12,43.27-23.35,86.77-36.15,129.82-22.77,76.6-46.47,152.93-69.65,229.41-3.63,12,2.16,21.61,14.34,24.9,3.74,1,7.57,1.74,11.71,2.68-4,17.25-7.8,33.76-11.73,50.76h48.65c1.75-9.67,3.45-19,5.14-28.29l2.79-1.55c7.57,7.92,15,16,22.82,23.67,2.34,2.3,5.72,5,8.66,5,28.86.38,57.74.25,86.61.19,1.42,0,2.84-.66,4.65-1.1,1.26-33-7-61.51-34.31-82.39,7.72-7,12.79-14.49,9.76-24.39-7.92-25.87-8.71-52.54-8.94-79.18-.56-64.34,11.73-127.08,24.83-189.65,8.25-39.41,17.14-78.69,25.83-118,.44-2,1.29-4.36,2.75-5.62,17.55-15.18,28.4-35.22,39.08-55.11,12.16-22.63,24.12-45.54,33.8-69.29C1401.47,337.59,1399.3,317.64,1383,301.43Zm-81.46,15.25,53.09,7.23c-14.81,19.45-28.36,37.22-41.52,54.49C1291.57,361.06,1296.34,339.58,1301.51,316.68Zm-3.74,56.24L1197.23,395.4c3.44-9.24,8-12.49,15.94-13.38,26.14-2.95,52.16-6.89,78.24-10.4A8.61,8.61,0,0,1,1297.77,372.92Zm-2.54-45.13c-2.07,18.44,2,18.27-18.17,20.68-17.15,2-34.25,4.5-51.39,6.77-1.27-14.81,1.15-18.05,14.72-19.93C1258.37,332.81,1276.35,330.37,1295.23,327.79ZM1059.5,604.88c-.42,3.37-4.22,7.84-7.42,8.86-2.66.85-8.42-1.78-9.71-4.39-1.94-3.93-3.1-10.3-1.16-13.66,3.86-6.71,10-12.08,15.27-18l3.37,1.81C1059.85,588,1060.57,596.54,1059.5,604.88Zm5.37-5.88c2-10.75-7.08-21.83,1.22-31.79,3.22,6.06,6.22,12,9.46,17.72C1079.12,591.28,1074.29,598.42,1064.87,599Zm12.19-19.69c-5.19-4.45-5.19-4.45,2.3-36-1.56,1.8-3.18,3.55-4.68,5.4-10.92,13.46-21.5,27.22-32.9,40.26-3.72,4.26-9.32,7.18-14.56,9.63-2.1,1-6.38-.11-8.1-1.83-1.09-1.08.43-5.17,1.28-7.74,2.08-6.3,4.48-12.49,6.7-18.75,1.1-3.12,1.42-6.72,3.19-9.36,8.63-12.87,16.47-26.54,26.74-38,26.6-29.65,45-64.45,64.86-98.42Q1155,368,1188.15,311.4c8.89-15.12,24-26.26,42.71-31.34-1.12,11.06-2.15,21.14-2.87,28.24L1208,323l1.84,2.61,15-10.34,2.14,1.65c-4.85,19.75-3.07,41-20.19,57.61-12.56,12.16-22.47,27.16-23.61,46-.21,3.47-2.17,7.06-4,10.18q-39.79,67.17-79.83,134.21a6.21,6.21,0,0,1-1.31,1.24C1081.11,562.83,1080.77,563,1077.06,579.31ZM957,925c-3-3.47-6.16-5.58-6.12-7.64s3.16-4.88,5.43-5.48c1.38-.36,5.19,2.81,5.25,4.49C961.64,918.71,959.22,921.12,957,925Zm262.22-10.29c-2.73-.81-4.61-4.44-6.86-6.88,2.31-1.94,4.52-5.26,7-5.44,2.27-.16,4.78,3,9.07,6.08C1224,911.66,1221,915.27,1219.21,914.74ZM1305,532.93c-13.2,60.79-26,121.76-35.81,183.15-8,49.69-8.26,100.08.67,150.07.1.52-.31,1.13-.65,2.26a32,32,0,0,1-5.08-1.26c-13.52-5.77-26.85-4.28-37.84,4.55-20.21,16.23-42,19.34-66.39,12.68-17.6-4.82-33.07-.21-47.52,14.73,5.84-19.07,11.06-35.92,16.16-52.8,19.8-65.51,39.91-130.93,59.23-196.59,12.67-43.05,24.41-86.38,36-129.73,3.18-11.83,10.15-20.4,19.06-27.84,12.07-10.09,20.65-22.07,22.49-39.2l-8.56-1.25c-1.33-14.35-2.6-28-3.87-41.72l-2.67-.22c-.09,6.93-.46,13.87-.16,20.79.15,3.33,2,6.56,2.34,9.92.78,7.08.11,12.69-8.84,15.3-7.23,2.11-13.56,7.31-20.29,11.15l1.71,3,17.19-10.18,1.18,1.26c-9.92,20.44-20.13,40.74-29.7,61.34-56,120.53-112.31,240.94-167.44,361.88-10.2,22.36-43.71,32-62.66,14.26-23.78-22.19-37.24-24.51-67.17-18.82,8-9.37,14.57-17.6,21.68-25.35,50.89-55.51,87.58-119.6,117.54-188.4,31.94-73.35,68.61-144.43,113-211.27,3.16-4.76,6.2-7.29,12.41-7.42,13.48-.29,24.61-5.88,31.48-18.12,1-1.87,1.3-4.21,1-7.15-7.91,14.67-19.44,22.15-34.14,21.24,3.73-12.82,6.65-26,11.66-38.28,1.63-4,8.7-5.8,14.7-9.48,1.73,7.75,3,13.16,4.16,18.58l2.43-.19a88.06,88.06,0,0,0-.65-9.77c-.93-5.21.47-7.8,6.14-9,29.33-6.37,58.56-13.16,89.46-20.17-1.09,9.86-3.36,19-2.72,27.85s4.19,17.43,6.46,26.13l-2,2.1-18.14-17.62c-.39,6.83,4.94,15.69,14.38,18.75,8.08,2.62,9.06,7.83,9.7,14.56C1317.69,476.12,1311.25,504.32,1305,532.93Zm12.1-98.7c-2.09-6.57-3.41-10.73-4.94-15.51l15.21-10.32Zm70.62-70.59c-15.31,32.76-33.93,64-51.84,95.48-2.54,4.46-9.23,6.57-13.8,9.64-9.82-26.65,5.49-46.72,8.74-69.3l-18.19,15.75-3.24-1.52c.33-3-.36-6.78,1.18-8.95,4.51-6.35,6.74-12.1-.23-17.16l58-77.67-2.32-2.2c-.9.38-2.33.53-2.61,1.17-4.65,10.76-12.33,12.36-23.23,9.81-12-2.79-24.41-3.49-37.21-5.18-.22-12.24,8.87-13.18,16.64-15.5l-.45-2.45-13.79,2.26c0-.1-.54-.68-.45-1.17,3.82-21.51-1-20.45,22.4-16.15A147.86,147.86,0,0,1,1361,290.69C1392.59,304.92,1403.12,330.76,1387.76,363.64Z"/><path d="M1375,981.66c14.67-21.34,32.51-33.55,56.67-35.47,3.95-.31,7.92-.41,11.88-.64,19.79-1.1,23.51-4.07,29-23.08,13.88-48.21,72.11-73.48,115.88-49.77a66.68,66.68,0,0,1,20.33,16.95c20.92,26.75,24.84,58.74,27.29,92Zm176.5-109c-21.42.61-39.13,14.22-46.45,35a53.49,53.49,0,0,0,16.21,59.11c16.06,13.54,41.44,16.59,58.39,6.44,2-1.21,3.64-5.86,3-8.28-2.41-9.23-5.78-18.21-8.87-27.26C1566.35,915.87,1558.87,894.12,1551.5,872.62Z"/><path d="M1530.45,828.35l-5.67-35.22,2.29-.37q3.06,17.91,6.11,35.82Z"/><path d="M1563.09,827.16l10.56-34.07,2.22.68q-5.22,17.41-10.43,34.81Z"/><path d="M1593.31,835.84l25.38-25.06,1.63,1.65L1594.7,838.2Z"/><path class="cls-1" d="M1265.39,453l-8.56-1.25c-1.33-14.35-2.6-28-3.87-41.72l-2.67-.22c-.09,6.93-.46,13.87-.16,20.79.15,3.33,2,6.56,2.34,9.92.78,7.08.11,12.69-8.84,15.3-7.23,2.11-13.56,7.31-20.29,11.15l1.71,3,17.19-10.18,1.18,1.26c-9.92,20.44-20.13,40.74-29.7,61.34-56,120.53-112.31,240.94-167.44,361.88-10.2,22.36-43.71,32-62.66,14.26-23.78-22.19-37.24-24.51-67.17-18.82,8-9.37,14.57-17.6,21.68-25.35,50.89-55.51,87.58-119.6,117.54-188.4,31.94-73.35,68.61-144.43,113-211.27,3.16-4.76,6.2-7.29,12.41-7.42,13.48-.29,24.61-5.88,31.48-18.12,1-1.87,1.3-4.21,1-7.15-7.91,14.67-19.44,22.15-34.14,21.24,3.73-12.82,6.65-26,11.66-38.28,1.63-4,8.7-5.8,14.7-9.48,1.73,7.75,3,13.16,4.16,18.58l2.43-.19a88.06,88.06,0,0,0-.65-9.77c-.93-5.21.47-7.8,6.14-9,29.33-6.37,58.56-13.16,89.46-20.17-1.09,9.86-3.36,19-2.72,27.85s4.19,17.43,6.46,26.13l-2,2.1-18.14-17.62c-.39,6.83,4.94,15.69,14.38,18.75,8.08,2.62,9.06,7.83,9.7,14.56,2.79,29.49-3.65,57.69-9.86,86.3-13.2,60.79-26,121.76-35.81,183.15-8,49.69-8.26,100.08.67,150.07.1.52-.31,1.13-.65,2.26a32,32,0,0,1-5.08-1.26c-13.52-5.77-26.85-4.28-37.84,4.55-20.21,16.23-42,19.34-66.39,12.68-17.6-4.82-33.07-.21-47.52,14.73,5.84-19.07,11.06-35.92,16.16-52.8,19.8-65.51,39.91-130.93,59.23-196.59,12.67-43.05,24.41-86.38,36-129.73,3.18-11.83,10.15-20.4,19.06-27.84C1255,482.06,1263.55,470.08,1265.39,453Zm3.21-56.16c-5.07-3.56-8.17-7.42-10.76-7.1-2.87.35-5.28,4.51-7.88,7,2.56,2.59,4.9,6.87,7.77,7.26C1260.31,404.31,1263.47,400.39,1268.6,396.79Z"/><path class="cls-2" d="M1230.86,280.06c-1.12,11.06-2.15,21.14-2.87,28.24L1208,323l1.84,2.61,15-10.34,2.14,1.65c-4.85,19.75-3.07,41-20.19,57.61-12.56,12.16-22.47,27.16-23.61,46-.21,3.47-2.17,7.06-4,10.18q-39.79,67.17-79.83,134.21a5.77,5.77,0,0,1-1.32,1.23c-16.92-3.32-17.26-3.11-21,13.16-5.19-4.45-5.19-4.45,2.3-36-1.56,1.8-3.18,3.55-4.68,5.4-10.92,13.46-21.5,27.22-32.9,40.26-3.72,4.26-9.32,7.18-14.56,9.63-2.1,1-6.38-.11-8.1-1.83-1.09-1.08.43-5.17,1.28-7.74,2.08-6.3,4.48-12.49,6.7-18.75,1.1-3.12,1.42-6.72,3.19-9.36,8.63-12.87,16.47-26.54,26.74-38,26.6-29.65,45-64.45,64.86-98.42Q1155,368,1188.15,311.4C1197,296.28,1212.11,285.14,1230.86,280.06Z"/><path class="cls-3" d="M1322.12,468.76c-9.82-26.65,5.49-46.72,8.74-69.3l-18.19,15.75-3.24-1.52c.33-3-.36-6.78,1.18-8.95,4.51-6.35,6.74-12.1-.23-17.16l58-77.67-2.32-2.2c-.9.38-2.33.53-2.61,1.17-4.65,10.76-12.33,12.36-23.23,9.81-12-2.79-24.41-3.49-37.21-5.18-.22-12.24,8.87-13.18,16.64-15.5l-.45-2.45-13.79,2.26c0-.1-.54-.68-.45-1.17,3.82-21.51-1-20.45,22.4-16.15A147.86,147.86,0,0,1,1361,290.69c31.61,14.23,42.14,40.07,26.78,72.95s-33.93,64-51.84,95.48C1333.38,463.58,1326.69,465.69,1322.12,468.76Z"/><path class="cls-4" d="M1295.23,327.79c-2.07,18.44,2,18.27-18.17,20.68-17.15,2-34.25,4.5-51.39,6.77-1.27-14.81,1.15-18.05,14.72-19.93C1258.37,332.81,1276.35,330.37,1295.23,327.79Z"/><path class="cls-5" d="M1197.23,395.4c3.44-9.24,8-12.49,15.94-13.38,26.14-2.95,52.16-6.89,78.24-10.4a8.61,8.61,0,0,1,6.36,1.3Z"/><path class="cls-6" d="M1059.85,579.49c0,8.48.72,17-.35,25.39-.42,3.37-4.22,7.84-7.42,8.86-2.66.85-8.42-1.78-9.71-4.39-1.94-3.93-3.1-10.3-1.16-13.66,3.86-6.71,10-12.08,15.27-18Z"/><path class="cls-7" d="M1295.21,203.49c-.45.6-.9,1.18-1.37,1.71a60.08,60.08,0,0,1-7.1,6.81c3.15,1.38,6.58,1.09,10.65-3.25a9.56,9.56,0,0,0,2.42-8.22C1298.24,201.54,1296.7,202.56,1295.21,203.49Z"/><path class="cls-6" d="M1064.87,599c2-10.75-7.08-21.83,1.22-31.79,3.22,6.06,6.22,12,9.46,17.72C1079.12,591.28,1074.29,598.42,1064.87,599Z"/><path class="cls-7" d="M1258.49,221.71l-.9-.48-.94.86c2.63,4.71,6.73,12.07,12.11,21.74v-19.6C1265.23,226,1260.92,224.67,1258.49,221.71Z"/><path class="cls-7" d="M1228.37,908.5c-4.41,3.16-7.4,6.77-9.16,6.24-2.73-.81-4.61-4.44-6.86-6.88,2.31-1.94,4.52-5.26,7-5.44C1221.57,902.26,1224.08,905.44,1228.37,908.5Z"/><path class="cls-7" d="M1280.68,216.38a5.11,5.11,0,0,0-1.14.68,8.62,8.62,0,0,1-1.5,1.88,8.63,8.63,0,0,1-5.23,4.54c0,3.55,0,7.21,0,11.08l10.43-19c-.1-.19-.2-.37-.29-.56A11.82,11.82,0,0,1,1280.68,216.38Z"/><path class="cls-7" d="M957,925c-3-3.47-6.16-5.58-6.12-7.64s3.16-4.88,5.43-5.48c1.38-.36,5.19,2.81,5.25,4.49C961.64,918.71,959.22,921.12,957,925Z"/><path class="cls-8" d="M1551.5,872.62c7.37,21.5,14.85,43.25,22.28,65,3.09,9.05,6.46,18,8.87,27.26.64,2.42-1,7.07-3,8.28-17,10.15-42.33,7.1-58.39-6.44a53.49,53.49,0,0,1-16.21-59.11C1512.37,886.84,1530.08,873.23,1551.5,872.62Zm-28.27,29.21c-6.41,7.41-8.28,24-3.3,30.47.87,1.13,5.54,1.2,6.44.11C1531.27,926.45,1529.43,909.15,1523.23,901.83Z"/><path d="M1268.6,396.79c-5.13,3.6-8.29,7.52-10.87,7.17-2.87-.39-5.21-4.67-7.77-7.26,2.6-2.5,5-6.66,7.88-7C1260.43,389.37,1263.53,393.23,1268.6,396.79Z"/><path d="M1330,196.37V203c-.69,4.88-3.52,8.58-6.61,12.17-1.85,2.15-3.6,4.4-5.31,6.66a2.13,2.13,0,0,0-.37,1.78c2.65,5.18,1.47,9.75-2,14s-6.85,8.78-10.48,13a32.22,32.22,0,0,1-6.14,5.58c-4.63,3.16-9.44,3.11-14.14-.09l-1.56-1.06c-2.37,3-4.77,5.85-7.06,8.82a13.05,13.05,0,0,1-7.73,4.95c-.78.18-1.55.42-2.32.64h-6.62a12.17,12.17,0,0,0-1.3-.4c-5.78-1.27-9.19-5-9.81-10.9a48.36,48.36,0,0,1-.06-5.9c0-1.1.21-2.2.38-3.82a27.49,27.49,0,0,1-1.85,2.26c-2.12,2.05-4.07,4.34-6.45,6-4,2.82-8.38,2.77-12.59.17a23.44,23.44,0,0,1-7.82-8,11.91,11.91,0,0,1,.73-14.13c1.25-1.67,2.59-3.27,3.88-4.91.31-.38.57-.79,1-1.35a65.08,65.08,0,0,1-7,0c-6-.69-9.64-4-11-9.94-.16-.66-.4-1.3-.6-1.95v-7c.77-4.49,3.6-7.78,6.38-11.12q2.84-3.4,5.52-6.94a2,2,0,0,0,.38-1.64c-2.42-5.26-1-9.84,2.39-14.07s6.74-8.56,10.25-12.73a36.55,36.55,0,0,1,5.39-5.38c4.66-3.64,9.59-3.65,14.48-.32.52.35,1,.72,1.69,1.18,2.56-3.2,5.14-6.31,7.6-9.51a12.68,12.68,0,0,1,8-4.88c.45-.09.88-.26,1.32-.39h6.62c.82.24,1.64.49,2.47.7,5.26,1.35,8.49,4.69,9.31,10a51.17,51.17,0,0,1,.16,7.44,21.88,21.88,0,0,1-.25,2.34c1.87-2,3.38-3.79,5.13-5.36,4.37-3.94,9.47-4.87,14.11-2.37a27.53,27.53,0,0,1,6.09,4.54c6.4,6.22,6.68,12.22,1.12,19.2l-3.85,4.87c2.43,0,4.51-.12,6.57,0,6.36.43,10.25,3.83,11.67,10C1329.75,195.63,1329.92,196,1330,196.37ZM1263,227.21c-.21.78-.43,1.6-.66,2.43a42.14,42.14,0,0,0-1.9,14.24c.4,5.57,3.35,9.32,8.33,10.48a22,22,0,0,0,10.18,0c5.34-1.27,8.44-4.73,8.94-10.2a28.05,28.05,0,0,0-.14-6.41c-.39-2.93-1.12-5.81-1.81-9.21.71,1.23,1.16,2,1.63,2.82a34.26,34.26,0,0,0,8,9.81c4.36,3.45,9.1,3.88,13.65.66a30.41,30.41,0,0,0,6.66-6.5,9.52,9.52,0,0,0-.14-12.4,44.11,44.11,0,0,0-7.13-6.79,68,68,0,0,0-6.63-4.26,8.83,8.83,0,0,1,2.2.41c5,1.33,9.93,2.48,15.1,1.52a10.53,10.53,0,0,0,8.77-7.93,21.75,21.75,0,0,0,.37-10.51c-1-5.05-4.23-8.13-9.36-8.67a37.8,37.8,0,0,0-8.3.18c-2.88.34-5.7,1.15-8.55,1.76a12.62,12.62,0,0,1,2.16-1.46c4.06-2.4,8-5,10.91-8.78,3.51-4.54,3.66-9.17.23-13.75a28,28,0,0,0-4.84-5c-5.51-4.42-11.22-4.27-16.23.74-2.6,2.59-4.59,5.79-6.8,8.76a35.08,35.08,0,0,0-1.82,3.08,12.07,12.07,0,0,1,.57-2.94,37.47,37.47,0,0,0,1.62-13.06c-.46-5.5-3.37-9.31-8.65-10.41a27.68,27.68,0,0,0-9.12-.4c-6.14.8-9.58,4.63-9.66,10.81a70.47,70.47,0,0,0,1.19,11.54,58.83,58.83,0,0,0,1.74,6.53c-1.33-2-2.32-4.22-3.74-6.1a62.36,62.36,0,0,0-7.71-9.09c-4.31-3.87-9.26-3.82-13.82-.29A27.14,27.14,0,0,0,1233,164c-4.16,5.58-4,10.89,1,15.81,2.92,2.9,6.58,5.05,9.93,7.52a19.63,19.63,0,0,0,2,1.11,5,5,0,0,1-2.14-.22c-4.84-1.26-9.7-2.34-14.76-1.62-5.26.73-8.67,3.72-9.47,9a27.75,27.75,0,0,0,0,8.63c1.07,6.41,5.16,9.68,11.73,9.93a41.25,41.25,0,0,0,13-2c.54-.15,1.08-.28,1.62-.42a16.23,16.23,0,0,1-3.08,2.11c-4,2.4-7.84,5-10.52,8.93a10.34,10.34,0,0,0-1,10.88,20.59,20.59,0,0,0,8.69,9.23,9.38,9.38,0,0,0,10.38-.3,25.56,25.56,0,0,0,5.75-5.23C1258.59,234.13,1260.67,230.63,1263,227.21Z"/><path class="cls-7" d="M1263,227.21c-2.29,3.42-4.37,6.92-6.87,10.09a25.58,25.58,0,0,1-5.75,5.23,9.41,9.41,0,0,1-10.38.3,20.61,20.61,0,0,1-8.68-9.23,10.31,10.31,0,0,1,1-10.88c2.68-3.94,6.53-6.53,10.53-8.93a16.17,16.17,0,0,0,3.07-2.11c-.54.14-1.08.27-1.61.42a41.36,41.36,0,0,1-13,2c-6.56-.25-10.65-3.52-11.73-9.93a27.75,27.75,0,0,1,0-8.63c.8-5.23,4.21-8.22,9.47-9,5.06-.71,9.92.37,14.77,1.62a4.8,4.8,0,0,0,2.14.23,17.14,17.14,0,0,1-2-1.12c-3.35-2.46-7-4.62-9.93-7.52-5-4.9-5.13-10.22-1-15.8a26.85,26.85,0,0,1,5.11-5.16c4.57-3.53,9.51-3.58,13.82.29a62.36,62.36,0,0,1,7.71,9.09c1.42,1.88,2.41,4.09,3.74,6.1a58.83,58.83,0,0,1-1.74-6.53,70.36,70.36,0,0,1-1.19-11.54c.08-6.18,3.52-10,9.66-10.81a27.68,27.68,0,0,1,9.12.4c5.28,1.1,8.19,4.91,8.65,10.41a37.47,37.47,0,0,1-1.62,13.06,12.07,12.07,0,0,0-.57,2.94,33.67,33.67,0,0,1,1.82-3.08c2.21-3,4.2-6.17,6.8-8.76,5-5,10.72-5.16,16.23-.74a28,28,0,0,1,4.84,5c3.44,4.58,3.28,9.21-.23,13.75-2.93,3.79-6.85,6.38-10.91,8.78a12.24,12.24,0,0,0-2.16,1.46c2.85-.61,5.67-1.42,8.55-1.76a37.79,37.79,0,0,1,8.3-.18c5.13.54,8.32,3.62,9.36,8.67a21.75,21.75,0,0,1-.37,10.51,10.53,10.53,0,0,1-8.77,7.93c-5.17,1-10.14-.19-15.1-1.52a8.83,8.83,0,0,0-2.2-.41,68,68,0,0,1,6.63,4.26,44.11,44.11,0,0,1,7.13,6.79,9.52,9.52,0,0,1,.14,12.4,30.41,30.41,0,0,1-6.66,6.5c-4.55,3.22-9.29,2.79-13.65-.66a34.26,34.26,0,0,1-8-9.81c-.47-.8-.92-1.59-1.63-2.82.69,3.4,1.42,6.28,1.81,9.21a28.05,28.05,0,0,1,.14,6.41c-.5,5.48-3.6,8.93-8.94,10.2a22,22,0,0,1-10.18,0c-5-1.16-7.93-4.91-8.33-10.48-.36-4.88.62-9.58,1.9-14.24C1262.53,228.81,1262.75,228,1263,227.21ZM1300.63,200a26.72,26.72,0,1,0-27,26.75A26.79,26.79,0,0,0,1300.63,200Z"/><path d="M1300.63,200a26.72,26.72,0,1,1-26.3-26.73A26.68,26.68,0,0,1,1300.63,200Zm-1.48.07a25.08,25.08,0,0,0-24.91-25.29c-14-.08-25.44,11-25.57,24.66-.14,14.29,10.92,25.75,24.94,25.84A25.1,25.1,0,0,0,1299.15,200.05Z"/><path class="cls-9" d="M1299.15,200.05a25.1,25.1,0,0,1-25.54,25.21c-14-.09-25.08-11.55-24.94-25.84.13-13.7,11.58-24.74,25.57-24.66A25.08,25.08,0,0,1,1299.15,200.05Zm-42.73,2.77c.14.05,0,0-.07,0l-1.64-.63a9.79,9.79,0,0,0,.51,1.8c.51,1.06,1.22,2,1.7,3.1,3.09,6.84,8.35,10.79,15.81,11.27,7.87.5,13.7-3.08,17.58-9.89.92-1.62,1.85-3.25,2.69-4.91a3.6,3.6,0,0,0,.07-1.44,11.88,11.88,0,0,1-1.29.38,4.24,4.24,0,0,1-1.28.07,11.54,11.54,0,0,1-1.37-.36c.1.52.21,1,.29,1.56a5,5,0,0,1,.24,2.13,16.78,16.78,0,0,1-31.64-.4,2.48,2.48,0,0,1,0-1.27c.16-.71.44-1.4.66-2.09Zm9.28-5.07a6.7,6.7,0,0,0,6.46-5.28c.09-.5-.43-1.11-.67-1.67-.43.37-1.07.65-1.25,1.12-1,2.56-2.39,3.72-4.61,3.7s-3.48-1.14-4.55-3.79c-.18-.44-.86-.68-1.31-1-.22.52-.7,1.08-.63,1.55A6.77,6.77,0,0,0,1265.7,197.75Zm16.45,0a6.75,6.75,0,0,0,6.45-5.07c.11-.58-.38-1.26-.59-1.89-.43.43-1,.78-1.25,1.29-.87,2.27-2.47,3.57-4.62,3.54s-3.59-1.24-4.48-3.47c-.22-.54-.93-.89-1.41-1.33-.17.66-.6,1.37-.48,2A6.75,6.75,0,0,0,1282.15,197.76Z"/><path d="M1256.42,202.82l2.24-.7c-.22.69-.5,1.38-.66,2.08a2.52,2.52,0,0,0,0,1.28,16.79,16.79,0,0,0,31.64.39,5.05,5.05,0,0,0-.24-2.13c-.08-.52-.19-1-.29-1.56a9.58,9.58,0,0,0,1.37.37,4.59,4.59,0,0,0,1.28-.07,11.94,11.94,0,0,0,1.29-.39,3.65,3.65,0,0,1-.07,1.45c-.84,1.66-1.77,3.29-2.69,4.91-3.89,6.8-9.71,10.39-17.58,9.89-7.46-.48-12.72-4.43-15.81-11.27-.48-1.07-1.19-2-1.7-3.1a9.89,9.89,0,0,1-.51-1.81l1.64.64C1256.45,202.84,1256.56,202.87,1256.42,202.82Z"/><path d="M1265.7,197.75a6.77,6.77,0,0,1-6.56-5.38c-.07-.47.41-1,.63-1.55.45.33,1.14.57,1.32,1,1.07,2.64,2.35,3.78,4.54,3.79s3.6-1.14,4.61-3.7c.18-.47.82-.75,1.25-1.12.24.56.77,1.17.68,1.67A6.73,6.73,0,0,1,1265.7,197.75Z"/><path d="M1282.15,197.76a6.73,6.73,0,0,1-6.37-5c-.13-.59.3-1.3.48-2,.48.44,1.18.79,1.4,1.33.9,2.23,2.37,3.45,4.49,3.47s3.75-1.27,4.62-3.54c.19-.51.82-.86,1.25-1.29.21.63.7,1.31.59,1.89A6.77,6.77,0,0,1,1282.15,197.76Z"/><rect class="cls-8" x="1510.27" y="895.79" width="37.42" height="43.45" rx="12"/><path class="cls-10" d="M1523.23,901.83c6.2,7.32,8,24.62,3.14,30.58-.9,1.09-5.57,1-6.44-.11C1515,925.87,1516.82,909.24,1523.23,901.83Z"/><circle cx="1529.17" cy="886.16" r="3.17"/><circle cx="1542.17" cy="899.16" r="3.17"/><path class="cls-5" d="M873.38,981.58s-.89-46.78,39.63-68.53,41.71,0,55.72-23.24a50.18,50.18,0,0,0,39.33,19.07c25.92,0,31-9.83,31-9.83l-5.5,84H980.21s3.13-23.73,4.92-33.5c2.54-13.86-4.17-2.45-28.92,33.5Z"/><path class="cls-5" d="M1145.86,891.67c0-1.15-23,89-23,89h47.67l2.78-28.25s25,10.31,31,28.25h96.54s7.94-50.39-19.07-67.19-46.09-21.77-46.09-21.77V873s-17.08,18.71-46.08,18.71Z"/><circle class="cls-11" cx="971.18" cy="914.56" r="5.96"/><circle class="cls-11" cx="1185.31" cy="914.56" r="5.96"/><path class="cls-5" d="M1238.54,280.06l-4.77,47.73,60.09-5.85,7.05-52.46s-10.22-2.42-11.86,0-5.62,19.09-20.32,19.49-21.23-15.89-21.23-15.89l-9,4.91"/><path d="M338.19,298v22.82h46.55v15H338.19v37.37H321.8V283h67.8V298Z"/><path d="M403.37,281.43h16v91.66h-16Z"/><path d="M433.53,339.13c0-19.28,16.65-35.41,36.32-35.41s36.32,16.13,36.32,35.41-16.65,35.53-36.32,35.53S433.53,358.4,433.53,339.13Zm56.91,0c0-11.8-9.44-21.77-20.59-21.77s-20.72,10-20.72,21.77,9.44,21.9,20.72,21.9S490.44,351.06,490.44,339.13Z"/><path d="M560.73,303.72v13.64c-14.56,0-24.26,8.65-24.26,21.51v34.22h-16V305.3h16v13.11C540.79,309.36,549.58,303.72,560.73,303.72Z"/><path d="M631.14,332.31v40.78h-15.6V365c-5,6.3-13.51,9.7-21.38,9.7-14.42,0-25.3-8.52-25.3-21.63,0-13.38,12.45-22.56,27.66-22.56a54.18,54.18,0,0,1,19,3.68v-1.84c0-7.87-4.33-15.47-16.66-15.47-6.42,0-12.58,2.22-18.35,5.11L575,310.8c9.57-4.72,18.49-7.08,27-7.08C620,303.72,631.14,315.13,631.14,332.31Zm-15.6,19.54v-7.61a51.7,51.7,0,0,0-16.66-2.62c-8,0-14.42,4.46-14.42,10.88S590.1,363,597.71,363,613.7,359.06,615.54,351.85Z"/><path d="M724,369.29a23,23,0,0,1-14.43,5.37c-11.28,0-19.14-8.13-19.14-19.53V318.54h-9.84V305.3h9.84V286.68H706V305.3h15.34v13.24H706v34.62c0,4.59,2.89,7.87,6.69,7.87a9.71,9.71,0,0,0,6.69-2.49Z"/><path d="M735.39,285.89a9.12,9.12,0,1,1,9.18,9.18A9.3,9.3,0,0,1,735.39,285.89Zm1.05,19.41h16v67.79h-16Z"/><path d="M873.21,330v43.14h-15.6V332.57c0-8.92-5.38-15.21-13.11-15.21-8.79,0-14.82,5.9-14.82,14.16v41.57H814.07V332.57c0-8.92-5.37-15.21-13.24-15.21-8.66,0-14.82,5.9-14.82,14.16v41.57H770V305.3h16v9.17c3.41-6.55,10.36-10.75,18.88-10.75a23.74,23.74,0,0,1,21.64,12.85c3.28-7.86,11.8-12.85,21.9-12.85C862.59,303.72,873.21,314.61,873.21,330Z"/><path d="M939.7,353.68l10.1,10.49c-5.9,6.3-17.71,10.49-27.54,10.49-19.41,0-35.41-14.81-35.41-35.66,0-20.33,15.21-35.28,34.49-35.28,21,0,33.18,15.87,33.18,40.92H903.38c2,9.31,9,15.86,18.75,15.86C928.42,360.5,935.9,357.62,939.7,353.68Zm-36.19-21.24h35.66c-1.83-8.52-7.6-14.55-17.17-14.55C913.08,317.89,905.87,323.52,903.51,332.44Z"/><text class="cls-12" transform="translate(321.8 459.23)">Diseñadora gráfica</text><path class="cls-1" d="M434.17,566.33a6.89,6.89,0,0,1-5.43-3.69,6.7,6.7,0,0,1,2.8-9,6.83,6.83,0,0,1,5.48-.29c-1-5.27.43-8.39,4.19-9.5,3.54-1,6.45.9,8.24,5.64,1.72-2,3.77-3.26,6.45-2.85a6.16,6.16,0,0,1,3.77,2.07,6.71,6.71,0,0,1,1.64,5.09,7.57,7.57,0,0,1-2.56,4.88,6.87,6.87,0,0,1,5.54,3.93,6.67,6.67,0,0,1-3,8.76c-1.21.62-1.44.63-5.49.34a7.27,7.27,0,0,1-.44,6.62,6.26,6.26,0,0,1-3.64,2.79c-3.6,1.06-6.3-.75-8.32-5.65a6.68,6.68,0,0,1-6.17,2.91,6.06,6.06,0,0,1-3.85-1.93,6.74,6.74,0,0,1-1.81-5.21A7.61,7.61,0,0,1,434.17,566.33Zm12.3,2a5.82,5.82,0,1,0-5.64-5.84A5.73,5.73,0,0,0,446.47,568.34Z"/><path class="cls-1" d="M478.13,566.33a6.87,6.87,0,0,1-5.43-3.7,6.47,6.47,0,0,1-.58-4.53,6.57,6.57,0,0,1,3.37-4.43,6.85,6.85,0,0,1,5.49-.28c-1-5.27.43-8.39,4.19-9.51,3.53-1,6.45.91,8.24,5.65,1.72-2,3.77-3.26,6.44-2.85a6.11,6.11,0,0,1,3.77,2.07,6.67,6.67,0,0,1,1.65,5.09,7.54,7.54,0,0,1-2.57,4.88,6.85,6.85,0,0,1,5.54,3.93,6.36,6.36,0,0,1,.43,4.46,6.54,6.54,0,0,1-3.39,4.29c-1.22.63-1.44.64-5.49.35a7.3,7.3,0,0,1-.45,6.62,6.22,6.22,0,0,1-3.63,2.78c-3.61,1.07-6.31-.74-8.32-5.64a6.69,6.69,0,0,1-6.17,2.91,6,6,0,0,1-3.85-1.93,6.71,6.71,0,0,1-1.82-5.21A7.53,7.53,0,0,1,478.13,566.33Zm12.29,2a5.82,5.82,0,1,0-5.64-5.85A5.73,5.73,0,0,0,490.42,568.34Z"/><path class="cls-1" d="M526.22,566.33a6.87,6.87,0,0,1-5.43-3.7,6.69,6.69,0,0,1,2.79-9,6.85,6.85,0,0,1,5.49-.28c-1-5.27.43-8.39,4.19-9.51,3.53-1,6.45.91,8.24,5.65,1.72-2,3.77-3.26,6.45-2.85a6.12,6.12,0,0,1,3.77,2.07,6.71,6.71,0,0,1,1.64,5.09,7.54,7.54,0,0,1-2.57,4.88,6.86,6.86,0,0,1,5.55,3.93,6.42,6.42,0,0,1,.42,4.46,6.51,6.51,0,0,1-3.39,4.29c-1.21.63-1.44.64-5.49.35a7.24,7.24,0,0,1-.45,6.61,6.19,6.19,0,0,1-3.63,2.79c-3.6,1.07-6.3-.74-8.32-5.64a6.69,6.69,0,0,1-6.17,2.91,6.06,6.06,0,0,1-3.85-1.93,6.67,6.67,0,0,1-1.81-5.21A7.52,7.52,0,0,1,526.22,566.33Zm12.3,2a5.82,5.82,0,1,0-5.64-5.85A5.74,5.74,0,0,0,538.52,568.34Z"/><path class="cls-1" d="M573.89,566.33a6.89,6.89,0,0,1-5.43-3.69,6.71,6.71,0,0,1,2.79-9,6.85,6.85,0,0,1,5.49-.29c-1-5.27.43-8.39,4.19-9.5,3.54-1,6.45.9,8.24,5.64,1.72-2,3.77-3.26,6.45-2.85a6.16,6.16,0,0,1,3.77,2.07,6.71,6.71,0,0,1,1.64,5.09,7.57,7.57,0,0,1-2.56,4.88,6.87,6.87,0,0,1,5.54,3.93,6.67,6.67,0,0,1-3,8.76c-1.21.62-1.44.63-5.49.34a7.3,7.3,0,0,1-.44,6.62,6.26,6.26,0,0,1-3.64,2.79c-3.6,1.06-6.3-.75-8.32-5.65a6.68,6.68,0,0,1-6.17,2.91,6.06,6.06,0,0,1-3.85-1.93,6.74,6.74,0,0,1-1.81-5.21A7.61,7.61,0,0,1,573.89,566.33Zm12.3,2a5.82,5.82,0,1,0-5.64-5.84A5.73,5.73,0,0,0,586.19,568.34Z"/><path class="cls-1" d="M1404.09,240.76c1.28,4.77,1.55,10.21,4.14,14.11s7.4,6,10.76,8.51c-3.1,2.08-8.21,4-10.93,7.75s-2.84,9-4.11,13.62l-1.26.07c-1.14-4.78-1.2-10.27-3.74-14.13-2.37-3.61-7.38-5.48-10.73-7.78,3-2.24,7.8-4.51,10.4-8.32s2.9-9.12,4.21-13.77Z"/><path class="cls-1" d="M1379.28,143.8c-3.56-8.35-2.94-19.07-16.27-20.4,11.74-2.48,12.94-11.88,15.36-22.91,4.46,10.08,2.78,21.88,17,22.74C1383.7,125.88,1380.31,133.74,1379.28,143.8Z"/><path class="cls-1" d="M1145.15,203.21c1.83,4.52,1.39,10.26,8.52,11.11-6.31,1.21-7.05,6.23-8.46,12.13-2.29-5.45-1.27-11.77-8.88-12.37C1142.61,212.78,1144.5,208.6,1145.15,203.21Z"/><path class="cls-1" d="M1213.68,75.86c3.4,8.42,2.59,19.13,15.88,20.7-11.77,2.26-13.15,11.64-15.77,22.62-4.28-10.16-2.38-21.93-16.56-23.05C1208.93,93.7,1212.46,85.9,1213.68,75.86Z"/></svg>