<svg id="Layer_1" data-name="Layer 1" xmlns="http://www.w3.org/2000/svg" viewBox="0 0 1920 1080"><defs><style>.cls-1{fill:#f8bb0b;}.cls-2{fill:#fe82f0;}.cls-3{fill:#2ca16c;}.cls-11,.cls-4{fill:#a500f4;}.cls-5{fill:#fff;}.cls-6{fill:#ffe8a8;}.cls-7{fill:#f3c500;}.cls-8{fill:none;stroke:#000;stroke-miterlimit:10;}.cls-9{fill:#276fb7;}.cls-10{fill:#cbe227;}.cls-11{font-size:38.66px;font-family:Metropolis-ExtraLightItalic, Metropolis;font-weight:200;font-style:italic;letter-spacing:0.02em;}</style></defs><path class="cls-1" d="M1172.07,316.17c1.83,4.52,1.39,10.26,8.52,11.1-6.31,1.22-7,6.24-8.46,12.13-2.29-5.44-1.27-11.76-8.88-12.36C1169.53,325.74,1171.42,321.55,1172.07,316.17Z"/><path d="M1383,301.43c-12.09-12-27.28-18.12-43.48-21.88-10.41-2.41-21-4-31.5-6,.5-3.9.89-6.9,1.34-10.4-3.08-.58-5.8-.94-8.45-1.6-8.65-2.17-14.3-.31-17.52,9.24-1.7,5-7.1,8.81-10.83,13.16-2-7.89-2.66-14.17-1.75-20.21.49-3.26,3-7.72,5.71-8.88,20.36-8.62,27.92-25.83,32.43-45.48-.87-.4-1.46-.94-2-.85-2.9.49-5.8,1.08-8.89,1.7-1.24.71-2.47,1.47-3.68,2.25a7.9,7.9,0,0,1-2,6.8c-3.36,3.59-6.2,3.83-8.8,2.69-.5.4-1,.8-1.5,1.19s-1.06.84-1.61,1.25l.25.47c-2.66,4.86-5.44,9.91-8.63,15.73,0-3.2,0-6.22,0-9.16a8.35,8.35,0,0,1-2.88.39c-.16.09-.31.15-.47.23v16.2l-10-18,.78-.71h0a18,18,0,0,1-2.7-1.69,16.81,16.81,0,0,1-2.92-3.1c-3.47-1.24-7.2-1.94-10.43-3.79-.33-.19-.64-.41-1-.63l-15.91-2.53c8.58,20.74,18.66,37,41.65,40.82-.51,8.31-1,16.23-1.5,24.25-7.47-1.74-6.69,2-16-20.05a27.56,27.56,0,0,0-5.05,1.82c-7.94,4.75-15.42,10.43-23.74,14.31-16.55,7.72-29.69,18.57-38.92,34.59-25.56,44.34-51.85,88.26-77.24,132.69-14.19,24.83-29.42,48.73-48,70.62-11,13-20.62,27.22-29.68,41.63a127.67,127.67,0,0,0-13.4,29.44c-3.36,10.72,3.94,16.9,14.57,13.64,2-.6,3.82-1.44,6-2.29.42,1.78.67,3,1,4.15,1.74,7,4.64,13.21,12.72,14.2,7.89,1,11.63-4.16,14.29-10.74a6.83,6.83,0,0,1,4.41-3.45c7.53-1.43,11-6.28,12.41-13.29.29-1.45.77-2.85,1.26-4.59h8.8c-9.34,19.43-18.31,38.13-27.31,56.81-17.08,35.46-33.16,71.45-51.53,106.23-23.93,45.31-57.86,83.5-91.25,122-13.64,15.72-13.75,20.13-3,37.91-30.22,15.57-42.87,42.1-46.78,74.59,1.81.49,3,1.08,4.12,1.08,27.32.08,54.64.23,81.95-.12,2.47,0,5.53-2.94,7.21-5.29,5.68-8,10.85-16.26,16.22-24.43l1.32,1.14c-1.27,9.3-2.53,18.59-3.83,28.12h53.3c1.2-18.11,2-35.41,3.6-52.64.93-10.16,1.57-20.75,5-30.16,4.21-11.41,11.83-21.52,17-32.64Q1129.46,711,1202.41,553.62c5.35-11.51,10.88-22.93,16.33-34.39-.9,9.23-3.6,17.72-6,26.31-12,43.27-23.35,86.77-36.15,129.82-22.77,76.6-46.47,152.93-69.65,229.41-3.63,12,2.16,21.61,14.34,24.9,3.74,1,7.57,1.74,11.71,2.68-4,17.25-7.8,33.76-11.73,50.76h48.65c1.75-9.67,3.45-19,5.14-28.29l2.79-1.55c7.57,7.92,15,16,22.82,23.67,2.34,2.3,5.72,5,8.66,5,28.86.38,57.74.25,86.61.19,1.42,0,2.84-.66,4.65-1.1,1.26-33-7-61.51-34.31-82.39,7.72-7,12.79-14.49,9.76-24.39-7.92-25.87-8.71-52.54-8.94-79.18-.56-64.34,11.73-127.08,24.83-189.65,8.25-39.41,17.14-78.69,25.83-118,.44-2,1.29-4.36,2.75-5.62,17.55-15.18,28.4-35.22,39.08-55.11,12.16-22.63,24.12-45.54,33.8-69.29C1401.47,337.59,1399.3,317.64,1383,301.43Zm-81.46,15.25,53.09,7.23c-14.81,19.45-28.36,37.22-41.52,54.49C1291.57,361.06,1296.34,339.58,1301.51,316.68Zm-3.74,56.24L1197.23,395.4c3.44-9.24,8-12.49,15.94-13.38,26.14-2.95,52.16-6.89,78.24-10.4A8.61,8.61,0,0,1,1297.77,372.92Zm-2.54-45.13c-2.07,18.44,2,18.27-18.17,20.68-17.15,2-34.25,4.5-51.39,6.77-1.27-14.81,1.15-18.05,14.72-19.93C1258.37,332.81,1276.35,330.37,1295.23,327.79ZM1059.5,604.88c-.42,3.37-4.22,7.84-7.42,8.86-2.66.85-8.42-1.78-9.71-4.39-1.94-3.93-3.1-10.3-1.16-13.66,3.86-6.71,10-12.08,15.27-18l3.37,1.81C1059.85,588,1060.57,596.54,1059.5,604.88Zm5.37-5.88c2-10.75-7.08-21.83,1.22-31.79,3.22,6.06,6.22,12,9.46,17.72C1079.12,591.28,1074.29,598.42,1064.87,599Zm12.19-19.69c-5.19-4.45-5.19-4.45,2.3-36-1.56,1.8-3.18,3.55-4.68,5.4-10.92,13.46-21.5,27.22-32.9,40.26-3.72,4.26-9.32,7.18-14.56,9.63-2.1,1-6.38-.11-8.1-1.83-1.09-1.08.43-5.17,1.28-7.74,2.08-6.3,4.48-12.49,6.7-18.75,1.1-3.12,1.42-6.72,3.19-9.36,8.63-12.87,16.47-26.54,26.74-38,26.6-29.65,45-64.45,64.86-98.42Q1155,368,1188.15,311.4c8.89-15.12,24-26.26,42.71-31.34-1.12,11.06-2.15,21.14-2.87,28.24L1208,323l1.84,2.61,15-10.34,2.14,1.65c-4.85,19.75-3.07,41-20.19,57.61-12.56,12.16-22.47,27.16-23.61,46-.21,3.47-2.17,7.06-4,10.18q-39.79,67.17-79.83,134.21a6.21,6.21,0,0,1-1.31,1.24C1081.11,562.83,1080.77,563,1077.06,579.31ZM957,925c-3-3.47-6.16-5.58-6.12-7.64s3.16-4.88,5.43-5.48c1.38-.36,5.19,2.81,5.25,4.49C961.64,918.71,959.22,921.12,957,925Zm262.22-10.29c-2.73-.81-4.61-4.44-6.86-6.88,2.31-1.94,4.52-5.26,7-5.44,2.27-.16,4.78,3,9.07,6.08C1224,911.66,1221,915.27,1219.21,914.74ZM1305,532.93c-13.2,60.79-26,121.76-35.81,183.15-8,49.69-8.26,100.08.67,150.07.1.52-.31,1.13-.65,2.26a32,32,0,0,1-5.08-1.26c-13.52-5.77-26.85-4.28-37.84,4.55-20.21,16.23-42,19.34-66.39,12.68-17.6-4.82-33.07-.21-47.52,14.73,5.84-19.07,11.06-35.92,16.16-52.8,19.8-65.51,39.91-130.93,59.23-196.59,12.67-43.05,24.41-86.38,36-129.73,3.18-11.83,10.15-20.4,19.06-27.84,12.07-10.09,20.65-22.07,22.49-39.2l-8.56-1.25c-1.33-14.35-2.6-28-3.87-41.72l-2.67-.22c-.09,6.93-.46,13.87-.16,20.79.15,3.33,2,6.56,2.34,9.92.78,7.08.11,12.69-8.84,15.3-7.23,2.11-13.56,7.31-20.29,11.15l1.71,3,17.19-10.18,1.18,1.26c-9.92,20.44-20.13,40.74-29.7,61.34-56,120.53-112.31,240.94-167.44,361.88-10.2,22.36-43.71,32-62.66,14.26-23.78-22.19-37.24-24.51-67.17-18.82,8-9.37,14.57-17.6,21.68-25.35,50.89-55.51,87.58-119.6,117.54-188.4,31.94-73.35,68.61-144.43,113-211.27,3.16-4.76,6.2-7.29,12.41-7.42,13.48-.29,24.61-5.88,31.48-18.12,1-1.87,1.3-4.21,1-7.15-7.91,14.67-19.44,22.15-34.14,21.24,3.73-12.82,6.65-26,11.66-38.28,1.63-4,8.7-5.8,14.7-9.48,1.73,7.75,3,13.16,4.16,18.58l2.43-.19a88.06,88.06,0,0,0-.65-9.77c-.93-5.21.47-7.8,6.14-9,29.33-6.37,58.56-13.16,89.46-20.17-1.09,9.86-3.36,19-2.72,27.85s4.19,17.43,6.46,26.13l-2,2.1-18.14-17.62c-.39,6.83,4.94,15.69,14.38,18.75,8.08,2.62,9.06,7.83,9.7,14.56C1317.69,476.12,1311.25,504.32,1305,532.93Zm12.1-98.7c-2.09-6.57-3.41-10.73-4.94-15.51l15.21-10.32Zm70.62-70.59c-15.31,32.76-33.93,64-51.84,95.48-2.54,4.46-9.23,6.57-13.8,9.64-9.82-26.65,5.49-46.72,8.74-69.3l-18.19,15.75-3.24-1.52c.33-3-.36-6.78,1.18-8.95,4.51-6.35,6.74-12.1-.23-17.16l58-77.67-2.32-2.2c-.9.38-2.33.53-2.61,1.17-4.65,10.76-12.33,12.36-23.23,9.81-12-2.79-24.41-3.49-37.21-5.18-.22-12.24,8.87-13.18,16.64-15.5l-.45-2.45-13.79,2.26c0-.1-.54-.68-.45-1.17,3.82-21.51-1-20.45,22.4-16.15A147.86,147.86,0,0,1,1361,290.69C1392.59,304.92,1403.12,330.76,1387.76,363.64Z"/><path d="M1375,981.66c16.22-23.6,36-37.1,62.67-39.22,4.37-.35,8.76-.46,13.14-.71,21.88-1.22,26-4.5,32-25.52,15.36-53.32,79.75-81.26,128.15-55a73.46,73.46,0,0,1,22.49,18.74c23.13,29.59,27.47,65,30.18,101.75Zm195.18-120.58c-23.68.67-43.27,15.72-51.36,38.71a59.16,59.16,0,0,0,17.92,65.37c17.77,15,45.83,18.35,64.58,7.12,2.24-1.34,4-6.48,3.32-9.16-2.67-10.2-6.4-20.13-9.81-30.13C1586.6,908.91,1578.33,884.85,1570.18,861.08Z"/><path d="M1546.91,812.11l-6.27-38.93,2.53-.42q3.38,19.82,6.76,39.62Z"/><path d="M1583,810.8q5.85-18.84,11.68-37.67l2.46.75q-5.78,19.26-11.54,38.5Z"/><path d="M1616.42,820.4l28.07-27.71,1.8,1.82L1618,823Z"/><path class="cls-1" d="M1265.39,453l-8.56-1.25c-1.33-14.35-2.6-28-3.87-41.72l-2.67-.22c-.09,6.93-.46,13.87-.16,20.79.15,3.33,2,6.56,2.34,9.92.78,7.08.11,12.69-8.84,15.3-7.23,2.11-13.56,7.31-20.29,11.15l1.71,3,17.19-10.18,1.18,1.26c-9.92,20.44-20.13,40.74-29.7,61.34-56,120.53-112.31,240.94-167.44,361.88-10.2,22.36-43.71,32-62.66,14.26-23.78-22.19-37.24-24.51-67.17-18.82,8-9.37,14.57-17.6,21.68-25.35,50.89-55.51,87.58-119.6,117.54-188.4,31.94-73.35,68.61-144.43,113-211.27,3.16-4.76,6.2-7.29,12.41-7.42,13.48-.29,24.61-5.88,31.48-18.12,1-1.87,1.3-4.21,1-7.15-7.91,14.67-19.44,22.15-34.14,21.24,3.73-12.82,6.65-26,11.66-38.28,1.63-4,8.7-5.8,14.7-9.48,1.73,7.75,3,13.16,4.16,18.58l2.43-.19a88.06,88.06,0,0,0-.65-9.77c-.93-5.21.47-7.8,6.14-9,29.33-6.37,58.56-13.16,89.46-20.17-1.09,9.86-3.36,19-2.72,27.85s4.19,17.43,6.46,26.13l-2,2.1-18.14-17.62c-.39,6.83,4.94,15.69,14.38,18.75,8.08,2.62,9.06,7.83,9.7,14.56,2.79,29.49-3.65,57.69-9.86,86.3-13.2,60.79-26,121.76-35.81,183.15-8,49.69-8.26,100.08.67,150.07.1.52-.31,1.13-.65,2.26a32,32,0,0,1-5.08-1.26c-13.52-5.77-26.85-4.28-37.84,4.55-20.21,16.23-42,19.34-66.39,12.68-17.6-4.82-33.07-.21-47.52,14.73,5.84-19.07,11.06-35.92,16.16-52.8,19.8-65.51,39.91-130.93,59.23-196.59,12.67-43.05,24.41-86.38,36-129.73,3.18-11.83,10.15-20.4,19.06-27.84C1255,482.06,1263.55,470.08,1265.39,453Zm3.21-56.16c-5.07-3.56-8.17-7.42-10.76-7.1-2.87.35-5.28,4.51-7.88,7,2.56,2.59,4.9,6.87,7.77,7.26C1260.31,404.31,1263.47,400.39,1268.6,396.79Z"/><path class="cls-2" d="M1230.86,280.06c-1.12,11.06-2.15,21.14-2.87,28.24L1208,323l1.84,2.61,15-10.34,2.14,1.65c-4.85,19.75-3.07,41-20.19,57.61-12.56,12.16-22.47,27.16-23.61,46-.21,3.47-2.17,7.06-4,10.18q-39.79,67.17-79.83,134.21a5.77,5.77,0,0,1-1.32,1.23c-16.92-3.32-17.26-3.11-21,13.16-5.19-4.45-5.19-4.45,2.3-36-1.56,1.8-3.18,3.55-4.68,5.4-10.92,13.46-21.5,27.22-32.9,40.26-3.72,4.26-9.32,7.18-14.56,9.63-2.1,1-6.38-.11-8.1-1.83-1.09-1.08.43-5.17,1.28-7.74,2.08-6.3,4.48-12.49,6.7-18.75,1.1-3.12,1.42-6.72,3.19-9.36,8.63-12.87,16.47-26.54,26.74-38,26.6-29.65,45-64.45,64.86-98.42Q1155,368,1188.15,311.4C1197,296.28,1212.11,285.14,1230.86,280.06Z"/><path class="cls-2" d="M1322.12,468.76c-9.82-26.65,5.49-46.72,8.74-69.3l-18.19,15.75-3.24-1.52c.33-3-.36-6.78,1.18-8.95,4.51-6.35,6.74-12.1-.23-17.16l58-77.67-2.32-2.2c-.9.38-2.33.53-2.61,1.17-4.65,10.76-12.33,12.36-23.23,9.81-12-2.79-24.41-3.49-37.21-5.18-.22-12.24,8.87-13.18,16.64-15.5l-.45-2.45-13.79,2.26c0-.1-.54-.68-.45-1.17,3.82-21.51-1-20.45,22.4-16.15A147.86,147.86,0,0,1,1361,290.69c31.61,14.23,42.14,40.07,26.78,72.95s-33.93,64-51.84,95.48C1333.38,463.58,1326.69,465.69,1322.12,468.76Z"/><path class="cls-3" d="M1295.23,327.79c-2.07,18.44,2,18.27-18.17,20.68-17.15,2-34.25,4.5-51.39,6.77-1.27-14.81,1.15-18.05,14.72-19.93C1258.37,332.81,1276.35,330.37,1295.23,327.79Z"/><path class="cls-1" d="M1197.23,395.4c3.44-9.24,8-12.49,15.94-13.38,26.14-2.95,52.16-6.89,78.24-10.4a8.61,8.61,0,0,1,6.36,1.3Z"/><path class="cls-4" d="M1059.85,579.49c0,8.48.72,17-.35,25.39-.42,3.37-4.22,7.84-7.42,8.86-2.66.85-8.42-1.78-9.71-4.39-1.94-3.93-3.1-10.3-1.16-13.66,3.86-6.71,10-12.08,15.27-18Z"/><path class="cls-5" d="M1295.84,207.75c-.42.56-.84,1.11-1.28,1.6a57.9,57.9,0,0,1-6.64,6.37c2.94,1.29,6.15,1,10-3a9,9,0,0,0,2.26-7.7C1298.67,205.92,1297.23,206.87,1295.84,207.75Z"/><path class="cls-4" d="M1064.87,599c2-10.75-7.08-21.83,1.22-31.79,3.22,6.06,6.22,12,9.46,17.72C1079.12,591.28,1074.29,598.42,1064.87,599Z"/><path class="cls-5" d="M1261.49,224.79l-.85-.45-.87.8c2.45,4.41,6.29,11.3,11.33,20.34V227.15C1267.8,228.84,1263.76,227.56,1261.49,224.79Z"/><path class="cls-5" d="M1228.37,908.5c-4.41,3.16-7.4,6.77-9.16,6.24-2.73-.81-4.61-4.44-6.86-6.88,2.31-1.94,4.52-5.26,7-5.44C1221.57,902.26,1224.08,905.44,1228.37,908.5Z"/><path class="cls-5" d="M1282.25,219.81a4.51,4.51,0,0,0-1.07.63,7.81,7.81,0,0,1-1.4,1.76,8,8,0,0,1-4.9,4.24c0,3.33,0,6.76,0,10.37,3.61-6.58,6.75-12.3,9.76-17.8l-.28-.53A10.5,10.5,0,0,1,1282.25,219.81Z"/><path class="cls-5" d="M957,925c-3-3.47-6.16-5.58-6.12-7.64s3.16-4.88,5.43-5.48c1.38-.36,5.19,2.81,5.25,4.49C961.64,918.71,959.22,921.12,957,925Z"/><path class="cls-6" d="M1570.18,861.08c8.15,23.77,16.42,47.83,24.65,71.91,3.41,10,7.14,19.93,9.81,30.13.7,2.68-1.08,7.82-3.32,9.16-18.75,11.23-46.81,7.86-64.58-7.12a59.16,59.16,0,0,1-17.92-65.37C1526.91,876.8,1546.5,861.75,1570.18,861.08Zm-31.26,32.3c-7.09,8.2-9.15,26.59-3.65,33.69,1,1.25,6.13,1.34,7.13.12C1547.81,920.6,1545.78,901.47,1538.92,893.38Z"/><path d="M1268.6,396.79c-5.13,3.6-8.29,7.52-10.87,7.17-2.87-.39-5.21-4.67-7.77-7.26,2.6-2.5,5-6.66,7.88-7C1260.43,389.37,1263.53,393.23,1268.6,396.79Z"/><path d="M1328.43,201.09v6.19c-.65,4.56-3.3,8-6.19,11.38-1.73,2-3.36,4.12-5,6.24a2,2,0,0,0-.35,1.66c2.48,4.84,1.37,9.12-1.86,13.14s-6.41,8.21-9.8,12.15a30,30,0,0,1-5.75,5.22c-4.33,3-8.83,2.92-13.22-.07l-1.46-1c-2.22,2.77-4.47,5.47-6.6,8.25a12.27,12.27,0,0,1-7.24,4.64c-.73.16-1.45.39-2.17.59h-6.19a10.53,10.53,0,0,0-1.21-.37c-5.41-1.19-8.61-4.67-9.18-10.2a44.19,44.19,0,0,1-.06-5.52c0-1,.2-2.06.36-3.57a26.55,26.55,0,0,1-1.74,2.11,51.48,51.48,0,0,1-6,5.62c-3.77,2.64-7.83,2.59-11.77.16a21.8,21.8,0,0,1-7.32-7.5,11.15,11.15,0,0,1,.68-13.22c1.17-1.56,2.43-3.06,3.63-4.6.29-.35.53-.74.9-1.26a59.19,59.19,0,0,1-6.55,0c-5.64-.63-9-3.77-10.32-9.29-.15-.62-.37-1.22-.56-1.82v-6.52c.72-4.2,3.37-7.28,6-10.4,1.77-2.12,3.49-4.29,5.16-6.49A1.85,1.85,0,0,0,1225,195c-2.25-4.92-.88-9.21,2.24-13.17s6.31-8,9.59-11.91a34.8,34.8,0,0,1,5-5c4.36-3.4,9-3.41,13.54-.3.49.33,1,.67,1.58,1.1,2.4-3,4.81-5.9,7.11-8.9a11.9,11.9,0,0,1,7.44-4.56c.42-.08.82-.24,1.24-.36h6.18c.77.22,1.54.45,2.32.65,4.91,1.27,7.94,4.39,8.71,9.4a47.31,47.31,0,0,1,.14,6.95c0,.66-.13,1.32-.22,2.19,1.74-1.83,3.16-3.54,4.79-5,4.09-3.68,8.86-4.56,13.2-2.22a26,26,0,0,1,5.7,4.25c6,5.82,6.25,11.43,1,18l-3.6,4.56c2.28,0,4.22-.11,6.15,0,5.95.4,9.59,3.58,10.92,9.37C1328.16,200.39,1328.31,200.74,1328.43,201.09Zm-62.76,28.85c-.19.72-.4,1.5-.62,2.27a39.55,39.55,0,0,0-1.78,13.32c.38,5.21,3.14,8.72,7.8,9.81a20.55,20.55,0,0,0,9.52,0c5-1.18,7.89-4.41,8.36-9.53a26.76,26.76,0,0,0-.12-6c-.37-2.74-1-5.43-1.7-8.61.67,1.14,1.08,1.89,1.52,2.63a32.21,32.21,0,0,0,7.44,9.18c4.08,3.23,8.52,3.63,12.77.62a28.56,28.56,0,0,0,6.23-6.09,8.91,8.91,0,0,0-.13-11.6,41.83,41.83,0,0,0-6.67-6.35,61.29,61.29,0,0,0-6.21-4,8.71,8.71,0,0,1,2.07.38c4.63,1.24,9.28,2.32,14.12,1.43a9.85,9.85,0,0,0,8.2-7.43,20.32,20.32,0,0,0,.35-9.83c-1-4.72-4-7.6-8.75-8.1a34.83,34.83,0,0,0-7.77.16c-2.69.32-5.33,1.08-8,1.65a12,12,0,0,1,2-1.37c3.8-2.25,7.47-4.66,10.21-8.21,3.28-4.25,3.43-8.58.22-12.87a26.41,26.41,0,0,0-4.53-4.62c-5.16-4.14-10.5-4-15.19.69-2.42,2.42-4.29,5.42-6.35,8.19a33.25,33.25,0,0,0-1.71,2.89,11.54,11.54,0,0,1,.53-2.76,35,35,0,0,0,1.52-12.21c-.43-5.15-3.16-8.72-8.09-9.74a26.08,26.08,0,0,0-8.54-.38c-5.73.75-9,4.33-9,10.12a66.82,66.82,0,0,0,1.11,10.79,55.67,55.67,0,0,0,1.63,6.11c-1.24-1.89-2.17-4-3.5-5.7a57.82,57.82,0,0,0-7.21-8.51c-4-3.62-8.66-3.57-12.93-.27a24.85,24.85,0,0,0-4.78,4.83c-3.89,5.21-3.72,10.19.91,14.78,2.74,2.72,6.16,4.73,9.3,7a17.13,17.13,0,0,0,1.82,1,4.65,4.65,0,0,1-2-.21c-4.53-1.17-9.08-2.18-13.81-1.52-4.92.69-8.11,3.49-8.86,8.38a26.06,26.06,0,0,0,0,8.08c1,6,4.83,9,11,9.28a38.68,38.68,0,0,0,12.17-1.88c.5-.14,1-.26,1.51-.39a14.8,14.8,0,0,1-2.88,2c-3.74,2.24-7.33,4.66-9.85,8.35a9.66,9.66,0,0,0-1,10.17,19.18,19.18,0,0,0,8.12,8.64,8.79,8.79,0,0,0,9.71-.28,23.89,23.89,0,0,0,5.38-4.89C1261.58,236.41,1263.53,233.13,1265.67,229.94Z"/><path class="cls-5" d="M1265.67,229.94c-2.14,3.19-4.09,6.47-6.43,9.44a24.05,24.05,0,0,1-5.37,4.89,8.8,8.8,0,0,1-9.72.28,19.39,19.39,0,0,1-8.12-8.64,9.64,9.64,0,0,1,1-10.17c2.51-3.69,6.1-6.11,9.85-8.36a15,15,0,0,0,2.87-2c-.5.13-1,.25-1.51.39a38.39,38.39,0,0,1-12.17,1.88c-6.14-.24-10-3.29-11-9.29a26.31,26.31,0,0,1,0-8.07c.75-4.89,3.94-7.69,8.86-8.38,4.73-.67,9.29.34,13.82,1.52a4.63,4.63,0,0,0,2,.21,17.35,17.35,0,0,1-1.83-1c-3.14-2.3-6.56-4.32-9.29-7-4.64-4.59-4.8-9.57-.92-14.78a24.85,24.85,0,0,1,4.78-4.83c4.27-3.3,8.9-3.35,12.93.27a57.82,57.82,0,0,1,7.21,8.51c1.33,1.75,2.26,3.81,3.5,5.7a55.67,55.67,0,0,1-1.63-6.11,65.71,65.71,0,0,1-1.11-10.79c.07-5.79,3.3-9.38,9-10.12a26.08,26.08,0,0,1,8.54.38c4.94,1,7.66,4.59,8.09,9.74a34.81,34.81,0,0,1-1.52,12.21,11.54,11.54,0,0,0-.53,2.76,31.82,31.82,0,0,1,1.71-2.89c2.06-2.78,3.92-5.77,6.35-8.19,4.69-4.68,10-4.83,15.19-.69a26.41,26.41,0,0,1,4.53,4.62c3.21,4.29,3.07,8.62-.22,12.87-2.74,3.55-6.41,6-10.21,8.21a11.6,11.6,0,0,0-2,1.37c2.67-.57,5.31-1.33,8-1.65a34.83,34.83,0,0,1,7.77-.16c4.8.5,7.78,3.38,8.75,8.1a20.32,20.32,0,0,1-.35,9.83,9.85,9.85,0,0,1-8.2,7.43c-4.84.89-9.49-.19-14.12-1.43a8.71,8.71,0,0,0-2.07-.38,61.29,61.29,0,0,1,6.21,4,41.83,41.83,0,0,1,6.67,6.35,8.91,8.91,0,0,1,.13,11.6,28.56,28.56,0,0,1-6.23,6.09c-4.25,3-8.69,2.61-12.77-.62a32.21,32.21,0,0,1-7.44-9.18c-.44-.74-.86-1.49-1.52-2.63.65,3.18,1.33,5.87,1.7,8.61a26.76,26.76,0,0,1,.12,6c-.47,5.12-3.36,8.35-8.36,9.53a20.55,20.55,0,0,1-9.52,0c-4.66-1.09-7.42-4.6-7.8-9.81a39.3,39.3,0,0,1,1.78-13.32C1265.27,231.44,1265.48,230.66,1265.67,229.94Zm35.24-25.47a25,25,0,1,0-25.22,25A25.06,25.06,0,0,0,1300.91,204.47Z"/><path d="M1300.91,204.47a25,25,0,1,1-24.6-25A24.94,24.94,0,0,1,1300.91,204.47Zm-1.39.06a23.61,23.61,0,1,0-23.89,23.58A23.46,23.46,0,0,0,1299.52,204.53Z"/><path class="cls-7" d="M1299.52,204.53a23.61,23.61,0,1,1-23.3-23.66A23.47,23.47,0,0,1,1299.52,204.53Zm-40,2.59c.13,0,0,0-.08,0l-1.53-.59a8.83,8.83,0,0,0,.48,1.69c.48,1,1.14,1.9,1.59,2.9,2.89,6.4,7.81,10.09,14.79,10.54,7.36.47,12.81-2.88,16.44-9.25.87-1.52,1.74-3,2.53-4.59a3.58,3.58,0,0,0,.06-1.36,8.81,8.81,0,0,1-1.21.36,3.74,3.74,0,0,1-1.2.07,8.65,8.65,0,0,1-1.28-.34c.09.48.2,1,.28,1.46a4.83,4.83,0,0,1,.21,2,15.56,15.56,0,0,1-14.91,10.27,15.72,15.72,0,0,1-14.68-10.64,2.28,2.28,0,0,1,0-1.19c.15-.66.41-1.3.62-1.95Zm8.68-4.74a6.3,6.3,0,0,0,6-4.94c.08-.47-.4-1-.63-1.56-.4.34-1,.6-1.17,1-1,2.4-2.23,3.48-4.31,3.47s-3.25-1.08-4.25-3.55c-.17-.41-.81-.63-1.24-1-.2.49-.65,1-.58,1.46A6.32,6.32,0,0,0,1268.24,202.38Zm15.38,0a6.34,6.34,0,0,0,6-4.75c.1-.53-.36-1.17-.55-1.76-.41.4-1,.73-1.17,1.21-.82,2.11-2.32,3.33-4.33,3.31s-3.35-1.16-4.19-3.25c-.21-.51-.87-.83-1.32-1.24-.16.61-.56,1.27-.44,1.83A6.31,6.31,0,0,0,1283.62,202.39Z"/><path d="M1259.56,207.12l2.09-.65c-.21.65-.47,1.28-.62,1.95a2.29,2.29,0,0,0,0,1.19,15.7,15.7,0,0,0,29.59.37,4.83,4.83,0,0,0-.21-2c-.08-.49-.18-1-.28-1.47a10.15,10.15,0,0,0,1.28.35,4.41,4.41,0,0,0,1.2-.07c.41-.08.8-.24,1.21-.36a3.53,3.53,0,0,1-.06,1.35c-.79,1.56-1.66,3.08-2.53,4.6-3.63,6.36-9.08,9.72-16.44,9.25-7-.45-11.9-4.15-14.79-10.54-.45-1-1.11-1.92-1.59-2.91a8.54,8.54,0,0,1-.48-1.68l1.53.59C1259.58,207.14,1259.69,207.17,1259.56,207.12Z"/><path d="M1268.24,202.38a6.32,6.32,0,0,1-6.14-5c-.07-.45.38-1,.59-1.46.42.32,1.06.54,1.23,1,1,2.47,2.2,3.53,4.25,3.55s3.36-1.07,4.31-3.47c.17-.43.77-.7,1.17-1,.23.52.72,1.09.63,1.56A6.31,6.31,0,0,1,1268.24,202.38Z"/><path d="M1283.62,202.39a6.31,6.31,0,0,1-6-4.65c-.11-.56.29-1.22.45-1.83.45.41,1.11.73,1.31,1.24.84,2.09,2.22,3.23,4.2,3.25s3.51-1.19,4.32-3.31c.19-.48.77-.81,1.17-1.21.2.59.65,1.23.55,1.76A6.34,6.34,0,0,1,1283.62,202.39Z"/><rect class="cls-6" x="1524.59" y="886.7" width="41.38" height="48.05" rx="12"/><path class="cls-8" d="M1538.92,893.38c6.86,8.09,8.89,27.22,3.48,33.81-1,1.22-6.17,1.13-7.13-.12C1529.77,920,1531.83,901.58,1538.92,893.38Z"/><circle cx="1545.49" cy="876.05" r="3.51"/><circle cx="1559.87" cy="890.43" r="3.51"/><path class="cls-9" d="M873.38,981.58s-.89-46.78,39.63-68.53,41.71,0,55.72-23.24a50.18,50.18,0,0,0,39.33,19.07c25.92,0,31-9.83,31-9.83l-5.5,84H980.21s3.13-23.73,4.92-33.5c2.54-13.86-4.17-2.45-28.92,33.5Z"/><path class="cls-9" d="M1145.86,891.67c0-1.15-23,89-23,89h47.67l2.78-28.25s25,10.31,31,28.25h96.54s7.94-50.39-19.07-67.19-46.09-21.77-46.09-21.77V873s-17.08,18.71-46.08,18.71Z"/><circle class="cls-10" cx="971.18" cy="914.56" r="5.96"/><circle class="cls-10" cx="1185.31" cy="914.56" r="5.96"/><path class="cls-1" d="M1238.54,280.06l-4.77,47.73,60.09-5.85,7.05-52.46s-10.22-2.42-11.86,0-5.62,19.09-20.32,19.49-21.23-15.89-21.23-15.89l-9,4.91"/><text class="cls-11" transform="translate(344.42 491.63)">Diseñadora gráfica</text><path class="cls-4" d="M377.11,401.61v15.55a23.24,23.24,0,0,1-7.53,4.12,34.51,34.51,0,0,1-11.44,1.66,21.59,21.59,0,0,1-11.58-3,10.29,10.29,0,0,1-5.35-9.29V348.19q0-5.67,27.72-5.66H405a26.54,26.54,0,0,1,2.64,7.28,34.62,34.62,0,0,1,.86,7.23q0,14.07-12.35,14.08H374.9c-1.56,0-2.34.65-2.34,2v.43a.76.76,0,0,0,.12.5h27.17a23.35,23.35,0,0,1,3.14,12q0,8.37-3.75,13H369.12a1.51,1.51,0,0,0-.49,1.1q0,1,1.5,1.17a28.89,28.89,0,0,0,3.41.19Q375.45,401.55,377.11,401.61Z"/><path class="cls-4" d="M428.44,421.89q-6.82,0-10.54-3.62t-3.72-10.95V347.2a23,23,0,0,1,8-4.27,31.88,31.88,0,0,1,9.74-1.51,21.15,21.15,0,0,1,12.61,3.69,13.63,13.63,0,0,1,5.59,11.56V390.3a19.13,19.13,0,0,0-6.76,1.93q-3.31,1.63-3.32,3.35a2.13,2.13,0,0,0,1.17,1.79q6.07-5.12,18.07-5.11h14.57a29.1,29.1,0,0,1,4.06,14.57,29.84,29.84,0,0,1-1.29,8.18,17.29,17.29,0,0,1-3.45,6.88Z"/><path class="cls-4" d="M519.79,423.8a44.67,44.67,0,0,1-20.07-4.52A35.23,35.23,0,0,1,485,405.45q-5.6-9.31-5.59-23.27,0-20.22,12.17-31.6,10.82-10,27.85-10,18.5,0,29.29,11.47t10.79,30.15q0,20.77-11.56,31.72Q537.44,423.8,519.79,423.8Zm2.46-44.39a42.57,42.57,0,0,0-.55-8.45c-.37-1.53-1-2.3-2-2.3a2.53,2.53,0,0,0-1.66.61c.08.74.21,1.72.37,3a77.37,77.37,0,0,1,.25,7.87v4q0,4.17-.19,6.08c-.12,1.27-.22,2.36-.31,3.26l-.12,1.48a2.53,2.53,0,0,0,1.66.61c1,0,1.66-.77,2-2.3a42.62,42.62,0,0,0,.55-8.46Z"/><path class="cls-4" d="M631.56,392.14,642.19,403q-1.1,9.6-6.05,14.76t-13.68,5.16A20.58,20.58,0,0,1,611,419.8q-6.21-3.93-9.29-12.54l-2.21-6a51.8,51.8,0,0,1-6.52-.68,1.83,1.83,0,0,0-.49,1.36c0,1.1,1.66,1.76,5,2l3.5,8.85V418q-7.07,5-18.13,5-7.93,0-12.66-3.26a10.77,10.77,0,0,1-4.74-9.47v-58.4q0-2.7,5-5.25a49.68,49.68,0,0,1,13-4.12,83.76,83.76,0,0,1,16.11-1.57q18.45,0,28.83,7.56,11,7.94,11,22.32a22,22,0,0,1-4.65,14.11A23.91,23.91,0,0,1,623,393c0,1.31.79,2,2.37,2S629,394,631.56,392.14Zm-31.72-14a2.92,2.92,0,0,0,1.41.19,2,2,0,0,0,1.78-.92,5.63,5.63,0,0,0,.62-3v-2.21a7.18,7.18,0,0,0-.52-3.17,1.83,1.83,0,0,0-1.73-.95,3.52,3.52,0,0,0-1.62.25,6.13,6.13,0,0,1,.06,1Z"/><path class="cls-4" d="M673.73,399.89a2.77,2.77,0,0,0-.61,1.59c0,1.19,1.11,2.19,3.35,3a29.79,29.79,0,0,0,8.14,1.5c.53,5.9,1.11,9.26,1.72,10.08q-1.17,2.28-6.45,4.58A29.52,29.52,0,0,1,668,422.94a28.64,28.64,0,0,1-15.06-3.78q-6.27-3.78-6.27-9.74a11.45,11.45,0,0,1,.31-2.83L660,348.06a41,41,0,0,1,11.74-4.92,56.38,56.38,0,0,1,14.2-1.78q10.57,0,18.08,3.57,8.54,4.05,10.39,11.74l14,58q-6.39,8.3-20.84,8.3a25.51,25.51,0,0,1-11.86-2.52q-4.86-2.52-5.66-7.19l-1.35-7.5a20.26,20.26,0,0,0,7.13-1.42c2.3-.9,3.44-1.84,3.44-2.83a1.92,1.92,0,0,0-.79-1.59,17.37,17.37,0,0,1-5.72,2.52,25.78,25.78,0,0,1-6.27.86Q678.21,403.27,673.73,399.89Zm13.71-17.95a3.53,3.53,0,0,0,1.78-.43q-1.59-9.35-2.15-11.07c-.45-1.19-1.13-1.78-2-1.78a3.76,3.76,0,0,0-1.47.37l2.33,12.41A2.1,2.1,0,0,0,687.44,381.94Z"/><path class="cls-4" d="M818.57,373.94v43.22a23.2,23.2,0,0,1-7.56,4.12,34.89,34.89,0,0,1-11.5,1.66,21.07,21.07,0,0,1-11.5-3,10.25,10.25,0,0,1-5.34-9.22V371.12H768.34a23.66,23.66,0,0,1-4.42-13.84,22.24,22.24,0,0,1,1.63-8.88,15.94,15.94,0,0,1,4-5.87h63.57a26,26,0,0,1,3,6.7,27.3,27.3,0,0,1,1.17,7.81q0,7.24-3.2,10.66a11.22,11.22,0,0,1-8.61,3.42h-18a2.32,2.32,0,0,0-.18.92,1.48,1.48,0,0,0,1.29,1.47,23.73,23.73,0,0,0,5.78.43Z"/><path class="cls-4" d="M878.2,353.66v63.5a23.2,23.2,0,0,1-7.56,4.12,34.89,34.89,0,0,1-11.5,1.66,21,21,0,0,1-11.49-3,10.24,10.24,0,0,1-5.35-9.22V347.2a23,23,0,0,1,7.56-4.12,34.92,34.92,0,0,1,11.43-1.66,22.22,22.22,0,0,1,11.62,2.95A10.5,10.5,0,0,1,878.2,353.66Z"/><path class="cls-4" d="M953,422.94q-8.43,0-13.22-2.77-5.16-2.88-5.59-8.17l-.56-5.78a16,16,0,0,0,9.53-7,5.32,5.32,0,0,0,1.05-2.77,1.41,1.41,0,0,0-1.6-1.59h-.19a.35.35,0,0,1-.24.06q-4.31,9-14,9a15.58,15.58,0,0,1-8.39-2.15c-2.31-1.43-4.44-3.91-6.36-7.44h-.37c-1.11,0-1.66.47-1.66,1.42a4.44,4.44,0,0,0,.74,2.21,19.07,19.07,0,0,0,6.14,6.46,13.43,13.43,0,0,0,6.09,2.33l-.49,11.62a26.38,26.38,0,0,1-7.78,3.47,48,48,0,0,1-11.62,1.08A29.6,29.6,0,0,1,891.11,420q-7.26-3.63-7.25-10.08,0-8.06,3.19-39.78,1.73-16.53,2.77-23.11,6.33-5.65,18.69-5.66,9,0,14.88,3.32L926.77,356l-2.15,9a6.64,6.64,0,0,0-.25,1.78q0,2.16,2.46,2.22l5.84-24.29a28.71,28.71,0,0,1,6.58-2.36,36.19,36.19,0,0,1,8.85-1q9,0,13.31,3t5.13,10.24c.12.9.31,2.4.55,4.49q5.6,48.08,5.6,56.62Q965.87,422.94,953,422.94Z"/><path class="cls-4" d="M1006,342.53h35.47a23,23,0,0,1,2.64,6.42,26,26,0,0,1,.86,6.24q0,6.21-2.42,9.35a8.11,8.11,0,0,1-6.8,3.13H1011c-1.52,0-2.28.6-2.28,1.79V370a.67.67,0,0,0,.13.49h29.38a20.74,20.74,0,0,1,1.91,4.79,24.88,24.88,0,0,1,.74,5.6q0,7.32-2.71,11.43h-13.34q-9.34,0-12.66.71a16.69,16.69,0,0,0-4.12,1.2,1.65,1.65,0,0,0-.8,1.41,1.5,1.5,0,0,0,.86,1.36,35.29,35.29,0,0,1,6.7-1.48q4.61-.43,10-.43h17.27a21.45,21.45,0,0,1,3.75,12.73,30,30,0,0,1-1,8,14.91,14.91,0,0,1-3.14,6.14h-46q-7.62,0-12.23-3.68-5-3.94-5-11.56V348.19q0-3,6.77-4.31T1006,342.53Z"/><path class="cls-1" d="M454.49,570.07a5.18,5.18,0,0,1-4.09-2.78,5.05,5.05,0,0,1,2.1-6.75,5.16,5.16,0,0,1,4.13-.21c-.73-4,.33-6.31,3.16-7.15,2.66-.8,4.85.68,6.2,4.24a5.1,5.1,0,0,1,4.85-2.14,4.57,4.57,0,0,1,2.84,1.56,5,5,0,0,1,1.24,3.83,5.68,5.68,0,0,1-1.93,3.67,5.16,5.16,0,0,1,4.17,3,4.87,4.87,0,0,1,.32,3.36,5,5,0,0,1-2.56,3.23c-.91.47-1.08.48-4.13.26a5.47,5.47,0,0,1-.33,5,4.74,4.74,0,0,1-2.74,2.1c-2.71.8-4.74-.56-6.26-4.25a5,5,0,0,1-4.65,2.19,4.55,4.55,0,0,1-2.89-1.45,5.07,5.07,0,0,1-1.37-3.92A5.7,5.7,0,0,1,454.49,570.07Zm9.26,1.52a4.38,4.38,0,1,0-4.25-4.41A4.34,4.34,0,0,0,463.75,571.59Z"/><path class="cls-1" d="M487.57,570.07a5.18,5.18,0,0,1-4.09-2.78,5,5,0,0,1,2.11-6.75,5.16,5.16,0,0,1,4.13-.21c-.73-4,.32-6.31,3.15-7.16,2.66-.79,4.86.69,6.21,4.25a5.09,5.09,0,0,1,4.85-2.14,4.57,4.57,0,0,1,2.83,1.56,5,5,0,0,1,1.24,3.83,5.71,5.71,0,0,1-1.93,3.67,5.16,5.16,0,0,1,4.17,3,4.81,4.81,0,0,1,.32,3.36,4.9,4.9,0,0,1-2.55,3.23c-.91.47-1.09.48-4.13.26a5.48,5.48,0,0,1-.34,5,4.72,4.72,0,0,1-2.74,2.1c-2.71.8-4.74-.56-6.26-4.25a5,5,0,0,1-4.64,2.19,4.58,4.58,0,0,1-2.9-1.45,5,5,0,0,1-1.36-3.93A5.71,5.71,0,0,1,487.57,570.07Zm9.26,1.51a4.38,4.38,0,1,0-4.25-4.4A4.32,4.32,0,0,0,496.83,571.58Z"/><path class="cls-1" d="M523.77,570.07a5.21,5.21,0,0,1-4.09-2.78,5,5,0,0,1,2.11-6.75,5.16,5.16,0,0,1,4.13-.21c-.73-4,.32-6.32,3.15-7.16,2.66-.79,4.86.69,6.2,4.25a5.11,5.11,0,0,1,4.86-2.14,4.57,4.57,0,0,1,2.83,1.56,5,5,0,0,1,1.24,3.82,5.7,5.7,0,0,1-1.93,3.68,5.16,5.16,0,0,1,4.17,3,4.81,4.81,0,0,1,.32,3.36,4.9,4.9,0,0,1-2.55,3.23c-.92.47-1.09.48-4.13.26a5.51,5.51,0,0,1-.34,5,4.72,4.72,0,0,1-2.74,2.1c-2.71.8-4.74-.56-6.26-4.25a5,5,0,0,1-4.64,2.19,4.52,4.52,0,0,1-2.9-1.46,5.05,5.05,0,0,1-1.37-3.92A5.67,5.67,0,0,1,523.77,570.07Zm9.26,1.51a4.38,4.38,0,1,0-4.25-4.4A4.32,4.32,0,0,0,533,571.58Z"/><path class="cls-1" d="M559.66,570.07a5.17,5.17,0,0,1-4.09-2.78,4.88,4.88,0,0,1-.44-3.42,5,5,0,0,1,2.54-3.33,5.16,5.16,0,0,1,4.13-.21c-.73-4,.32-6.31,3.15-7.15,2.66-.8,4.86.68,6.21,4.24a5.09,5.09,0,0,1,4.85-2.14,4.62,4.62,0,0,1,2.84,1.56,5.06,5.06,0,0,1,1.23,3.83,5.68,5.68,0,0,1-1.93,3.67,5.16,5.16,0,0,1,4.17,3,4.81,4.81,0,0,1,.32,3.36,4.9,4.9,0,0,1-2.55,3.23c-.91.47-1.08.48-4.13.26a5.47,5.47,0,0,1-.34,5,4.69,4.69,0,0,1-2.73,2.1c-2.71.8-4.75-.56-6.26-4.25a5,5,0,0,1-4.65,2.19,4.58,4.58,0,0,1-2.9-1.45,5.06,5.06,0,0,1-1.36-3.92A5.7,5.7,0,0,1,559.66,570.07Zm9.25,1.52a4.38,4.38,0,1,0-4.24-4.41A4.33,4.33,0,0,0,568.91,571.59Z"/><path class="cls-1" d="M1404.09,240.76c1.28,4.77,1.55,10.21,4.14,14.11s7.4,6,10.76,8.51c-3.1,2.08-8.21,4-10.93,7.75s-2.84,9-4.11,13.62l-1.26.07c-1.14-4.78-1.2-10.27-3.74-14.13-2.37-3.61-7.38-5.48-10.73-7.78,3-2.24,7.8-4.51,10.4-8.32s2.9-9.12,4.21-13.77Z"/><path class="cls-1" d="M1401,151.91c-4-9.35-3.3-21.35-18.21-22.84,13.13-2.77,14.48-13.29,17.18-25.64,5,11.28,3.12,24.49,19,25.45C1406,131.85,1402.15,140.65,1401,151.91Z"/><path class="cls-1" d="M1145.15,203.21c1.83,4.52,1.39,10.26,8.52,11.11-6.31,1.21-7.05,6.23-8.46,12.13-2.29-5.45-1.27-11.77-8.88-12.37C1142.61,212.78,1144.5,208.6,1145.15,203.21Z"/><path class="cls-1" d="M1215.64,75.86c3.81,9.42,2.9,21.41,17.78,23.18-13.18,2.52-14.72,13-17.66,25.31-4.78-11.37-2.66-24.54-18.53-25.8C1210.33,95.83,1214.28,87.1,1215.64,75.86Z"/></svg>